<!-- Created with Inkscape (http://www.inkscape.org/) -->
<svg id="svg2985" xmlns:rdf="http://www.w3.org/1999/02/22-rdf-syntax-ns#" xmlns="http://www.w3.org/2000/svg" viewBox="0 0 48 48" version="1.1" xmlns:cc="http://creativecommons.org/ns#" xmlns:dc="http://purl.org/dc/elements/1.1/">
	<metadata id="metadata2990">
		<rdf:RDF>
			<cc:Work rdf:about="">
				<dc:format>image/svg+xml</dc:format>
				<dc:type rdf:resource="http://purl.org/dc/dcmitype/StillImage"/>
				<dc:title/>
			</cc:Work>
		</rdf:RDF>
	</metadata>
	<g id="layer1">
		<path id="path3077" fill="#666" d="m23.9,0.15c-13.1,0-23.8,10.7-23.8,23.8,0,13.2,10.7,23.9,23.9,23.9s23.9-10.7,23.9-23.9c-0.1-13.1-10.8-23.8-24-23.8zm0,5.8c3.9,0,7.5,1.3,10.5,3.4l-25.1,25.1c-2.1-3-3.4-6.6-3.4-10.5,0-9.9,8.1-18,18-18zm0,36c-3.9,0-7.5-1.3-10.5-3.4l25.1-25.1c2.1,3,3.4,6.6,3.4,10.5,0.1,10-8,18-18,18z"/>
	</g>
</svg>
