<?xml version="1.0" encoding="UTF-8"?>
<svg xmlns="http://www.w3.org/2000/svg" viewBox="0 0 48 48" version="1.1">
  <path d="M 1 2.1875 L 1 36.1875 L 17.6875 36.1875 C 17.8875 36.1875 18.0875 36.4875 18.1875 36.6875 L 23.6875 44.90625 L 29.1875 36.59375 C 29.2875 36.39375 29.4875 36.1875 29.6875 36.1875 L 47 36.1875 L 47 2.1875 L 1 2.1875 z M 7.8125 10.1875 L 27.1875 10.1875 C 27.8875 10.1875 28.5 10.9875 28.5 11.6875 C 28.5 12.3875 27.8875 13.1875 27.1875 13.1875 L 7.8125 13.1875 C 7.1125 13.1875 6.5 12.3875 6.5 11.6875 C 6.5 10.9875 7.1125 10.1875 7.8125 10.1875 z M 7.8125 16.1875 L 41.1875 16.1875 C 41.8875 16.1875 42.5 16.9875 42.5 17.6875 C 42.5 18.3875 41.8875 19.1875 41.1875 19.1875 L 7.8125 19.1875 C 7.1125 19.1875 6.5 18.3875 6.5 17.6875 C 6.5 16.9875 7.1125 16.1875 7.8125 16.1875 z M 7.8125 23.1875 L 41.1875 23.1875 C 41.8875 23.1875 42.5 23.9875 42.5 24.6875 C 42.5 25.3875 41.8875 26.1875 41.1875 26.1875 L 7.8125 26.1875 C 7.1125 26.1875 6.5 25.3875 6.5 24.6875 C 6.5 23.9875 7.1125 23.1875 7.8125 23.1875 z " />
</svg>
