<!-- Created with Inkscape (http://www.inkscape.org/) -->
<svg id="svg2985" xmlns:rdf="http://www.w3.org/1999/02/22-rdf-syntax-ns#" xmlns="http://www.w3.org/2000/svg" viewBox="0 0 48 48" version="1.1" xmlns:cc="http://creativecommons.org/ns#" xmlns:dc="http://purl.org/dc/elements/1.1/">
	<metadata id="metadata2990">
		<rdf:RDF>
			<cc:Work rdf:about="">
				<dc:format>image/svg+xml</dc:format>
				<dc:type rdf:resource="http://purl.org/dc/dcmitype/StillImage"/>
				<dc:title/>
			</cc:Work>
		</rdf:RDF>
	</metadata>
	<g id="layer1">
		<g id="XMLID_410_" transform="translate(0,0.3)">
			<path id="XMLID_2_" fill="#666" d="m23.8,47.4,0,0c-0.6,0-1.1-0.4-1.5-0.9l-6.9-9.5h-13.5c-1,0-1.9-0.6-1.9-1.6v-33.2c0-1,0.9-2.2,1.9-2.2h44.2c1,0,1.9,1.2,1.9,2.2v33.2c0,1-0.9,1.6-1.9,1.6h-14l-6.8,9.6c-0.4,0.4-0.9,0.8-1.5,0.8zm-19.8-13.4h12.4c0.6,0,1.1,0,1.5,0.5l5.9,8,5.9-8c0.3-0.5,0.9-0.6,1.5-0.6h12.8v-29.9h-40v30z" class="st0"/>
		</g>
	</g>
	<style id="style3043" type="text/css">.st0{fill:#666666;}</style>
</svg>