<!-- Created with Inkscape (http://www.inkscape.org/) -->
<svg id="svg2993" xmlns:rdf="http://www.w3.org/1999/02/22-rdf-syntax-ns#" xmlns="http://www.w3.org/2000/svg" viewBox="0 0 48 48" version="1.1" xmlns:cc="http://creativecommons.org/ns#" xmlns:dc="http://purl.org/dc/elements/1.1/">
	<metadata id="metadata2998">
		<rdf:RDF>
			<cc:Work rdf:about="">
				<dc:format>image/svg+xml</dc:format>
				<dc:type rdf:resource="http://purl.org/dc/dcmitype/StillImage"/>
				<dc:title/>
			</cc:Work>
		</rdf:RDF>
	</metadata>
	<g id="layer1">
		<g id="g4043" transform="translate(0,0.025)">
			<g id="g4045">
				<path id="path4047" fill="#666" d="M16.6,10.9c-7.5,0-15.6-1.6-15.6-5.3,0-7,31.1-7,31.1,0,0,3.7-8,5.3-15.5,5.3zm0-8.6c-8.8,0-13.6,2.2-13.6,3.3s4.8,3.3,13.5,3.3,13.5-2.2,13.5-3.3-4.7-3.3-13.4-3.3z"/>
			</g>
			<g id="g4049">
				<path id="path4051" fill="#666" d="M16.6,16.9c-7.8,0-15.6-1.9-15.6-5.3,0-0.6,0.5-1,1-1s1,0.5,1,1c0,1.1,4.8,3.3,13.5,3.3s13.5-2.2,13.5-3.3c0-0.6,0.5-1,1-1,0.6,0,1,0.5,1,1,0.1,3.4-7.7,5.3-15.4,5.3z"/>
			</g>
			<g id="g4053">
				<path id="path4055" fill="#666" d="M16.6,22.8c-7.8,0-15.6-1.8-15.6-5.3,0-0.6,0.5-1,1-1s1,0.5,1,1c0,1.1,4.8,3.3,13.5,3.3s13.5-2.2,13.5-3.3c0-0.6,0.5-1,1-1,0.6,0,1,0.5,1,1,0.1,3.5-7.7,5.3-15.4,5.3z"/>
			</g>
			<g id="g4057">
				<path id="path4059" fill="#666" d="m31.4,35.7c-7.7,0-15.5-1.8-15.5-5.3,0-7,31.1-7,31.1,0,0,3.5-7.8,5.3-15.6,5.3zm0-8.6c-8.7,0-13.5,2.2-13.5,3.3s4.8,3.3,13.5,3.3,13.6-2.2,13.6-3.3-4.8-3.3-13.6-3.3z"/>
			</g>
			<g id="g4061">
				<path id="path4063" fill="#666" d="m31.4,41.7c-7.5,0-15.5-1.7-15.5-5.3,0-0.6,0.5-1,1-1,0.6,0,1,0.5,1,1,0,1.1,4.8,3.3,13.5,3.3s13.6-2.2,13.6-3.3c0-0.6,0.5-1,1-1s1,0.5,1,1c0,3.6-8.1,5.3-15.6,5.3z"/>
			</g>
			<g id="g4065">
				<path id="path4067" fill="#666" d="m31.4,47.6c-7.7,0-15.5-1.8-15.5-5.3,0-0.6,0.5-1,1-1,0.6,0,1,0.5,1,1,0,1.1,4.8,3.3,13.5,3.3s13.6-2.2,13.6-3.3c0-0.6,0.5-1,1-1s1,0.5,1,1c0,3.5-7.8,5.3-15.6,5.3z"/>
			</g>
			<g id="g4069">
				<path id="path4071" fill="#666" d="M16.6,28.8c-7.5,0-15.6-1.7-15.6-5.4,0-0.6,0.5-1,1-1s1,0.5,1,1c0,1.1,4.8,3.3,13.5,3.3,1.3,0,2.7-0.1,3.8-0.1,0.5-0.1,1,0.4,1.1,0.9,0,0.6-0.4,1-0.9,1.1-1.2,0.1-2.6,0.2-3.9,0.2z"/>
			</g>
			<g id="g4073">
				<path id="path4075" fill="#666" d="m27.6,27.3c-0.4,0-0.8-0.3-0.9-0.7-0.2-0.5,0.1-1.1,0.6-1.3,2.1-0.8,2.8-1.7,2.8-1.9,0-0.6,0.5-1,1-1,0.6,0,1,0.4,1,1,0,2-2.9,3.3-4.2,3.8-0.1,0.1-0.2,0.1-0.3,0.1z"/>
			</g>
			<g id="g4077">
				<path id="path4079" fill="#666" d="M16.6,34.7c-7.8,0-15.6-1.8-15.6-5.3,0-0.6,0.5-1,1-1s1,0.5,1,1c0,1.1,4.8,3.3,13.5,3.3,0.6,0,1,0.5,1,1s-0.4,1-0.9,1z"/>
			</g>
			<g id="g4081">
				<path id="path4083" fill="#666" d="M16.6,40.6c-7.5,0-15.6-1.6-15.6-5.3,0-0.6,0.5-1,1-1s1,0.5,1,1c0,1.1,4.8,3.3,13.5,3.3,0.6,0,1,0.5,1,1s-0.4,1-0.9,1z"/>
			</g>
			<g id="g4085">
				<path id="path4087" fill="#666" d="m2,36.4c-0.6,0-1-0.5-1-1v-29.8c0-0.6,0.5-1,1-1s1,0.5,1,1v29.7c0,0.6-0.4,1.1-1,1.1z"/>
			</g>
			<g id="g4089">
				<path id="path4091" fill="#666" d="m31.1,27.1c-0.6,0-1-0.5-1-1v-20.5c0-0.6,0.5-1,1-1,0.6,0,1,0.5,1,1v20.5c0,0.6-0.4,1-1,1z"/>
			</g>
			<g id="g4093">
				<path id="path4095" fill="#666" d="m16.9,43.3c-0.6,0-1-0.5-1-1v-11.9c0-0.6,0.5-1,1-1,0.6,0,1,0.5,1,1v11.9c0,0.6-0.4,1-1,1z"/>
			</g>
			<g id="g4097">
				<path id="path4099" fill="#666" d="m46,43.3c-0.6,0-1-0.5-1-1v-11.9c0-0.6,0.5-1,1-1s1,0.5,1,1v11.9c0,0.6-0.5,1-1,1z"/>
			</g>
		</g>
	</g>
</svg>
