<!-- Created with Inkscape (http://www.inkscape.org/) -->
<svg id="svg2985" xmlns:rdf="http://www.w3.org/1999/02/22-rdf-syntax-ns#" xmlns="http://www.w3.org/2000/svg" viewBox="0 0 48 48" version="1.1" xmlns:cc="http://creativecommons.org/ns#" xmlns:dc="http://purl.org/dc/elements/1.1/">
	<metadata id="metadata2990">
		<rdf:RDF>
			<cc:Work rdf:about="">
				<dc:format>image/svg+xml</dc:format>
				<dc:type rdf:resource="http://purl.org/dc/dcmitype/StillImage"/>
				<dc:title/>
			</cc:Work>
		</rdf:RDF>
	</metadata>
	<g id="layer1">
		<g id="g4512">
			<g id="g4514">
				<rect id="rect4516" height="3.5" width="16.5" y="3.8" x="15.7" fill="#676767"/>
			</g>
			<g id="g4518">
				<path id="path4520" fill="#676767" d="M43.7,48h-39.4c-2.4,0-4.3-1.9-4.3-4.2v-35.8c0-2.3,1.9-4.2,4.3-4.2h4.9v3.5h-4.9c-0.4,0-0.8,0.3-0.8,0.7v35.7c0,0.4,0.3,0.7,0.7,0.7h39.5c0.4,0,0.7-0.3,0.7-0.7v-35.7c0-0.4-0.3-0.7-0.7-0.7h-5v-3.5h5c2.4,0,4.3,1.9,4.3,4.2v35.7c0,2.4-1.9,4.3-4.3,4.3z"/>
			</g>
			<g id="g4522">
				<rect id="rect4524" height="3.5" width="44.5" y="13.6" x="1.8" fill="#676767"/>
			</g>
			<g id="g4526">
				<path id="path4528" fill="#676767" d="M13.2,11.5h-1.6c-2.4,0-4.3-1.9-4.3-4.2v-3.1c0.1-2.3,2-4.2,4.3-4.2h1.6c2.4,0,4.3,1.9,4.3,4.2v3.1c0,2.3-1.9,4.2-4.3,4.2zm-1.6-8c-0.4,0-0.7,0.3-0.7,0.7v3.1c0,0.4,0.3,0.7,0.7,0.7h1.6c0.4,0,0.7-0.3,0.7-0.7v-3.1c0-0.4-0.3-0.7-0.7-0.7h-1.6z"/>
			</g>
			<g id="g4530">
				<path id="path4532" fill="#676767" d="m36.3,11.5h-1.6c-2.4,0-4.3-1.9-4.3-4.2v-3.1c0-2.3,1.9-4.2,4.3-4.2h1.6c2.4,0,4.3,1.9,4.3,4.2v3.1c-0.1,2.3-2,4.2-4.3,4.2zm-1.6-8c-0.4,0-0.7,0.3-0.7,0.7v3.1c0,0.4,0.3,0.7,0.7,0.7h1.6c0.4,0,0.7-0.3,0.7-0.7v-3.1c0-0.4-0.3-0.7-0.7-0.7h-1.6z"/>
			</g>
		</g>
	</g>
</svg>
