<!-- Created with Inkscape (http://www.inkscape.org/) -->
<svg id="svg2985" xmlns:rdf="http://www.w3.org/1999/02/22-rdf-syntax-ns#" xmlns="http://www.w3.org/2000/svg" viewBox="0 0 48 48" version="1.1" xmlns:cc="http://creativecommons.org/ns#" xmlns:dc="http://purl.org/dc/elements/1.1/">
	<metadata id="metadata2990">
		<rdf:RDF>
			<cc:Work rdf:about="">
				<dc:format>image/svg+xml</dc:format>
				<dc:type rdf:resource="http://purl.org/dc/dcmitype/StillImage"/>
				<dc:title/>
			</cc:Work>
		</rdf:RDF>
	</metadata>
	<g id="layer1">
		<g id="g5309" transform="translate(-0.015625,0)">
			<g id="Layer_1" display="none">
				<g id="g5285" display="inline">
					<path id="path5287" fill="#666" d="m22.8,29.4c-0.4,0-0.8-0.1-1-0.4l-6.8-6.8-6.7,6.7c-0.6,0.6-1.5,0.6-2.1,0s-0.6-1.5,0-2.1l8.8-8.8,8.8,8.8c0.6,0.6,0.6,1.5,0,2.1-0.3,0.3-0.7,0.5-1,0.5z"/>
				</g>
				<g id="g5289" display="inline">
					<path id="path5291" fill="#666" d="m32.3,30-8.8-8.8c-0.6-0.6-0.6-1.5,0-2.1s1.5-0.6,2.1,0l6.7,6.7,6.7-6.7c0.6-0.6,1.5-0.6,2.1,0s0.6,1.5,0,2.1l-8.8,8.8z"/>
				</g>
				<path id="path5293" d="M28,39h-25v-30h42v21.9c2,1.7,2.9,4.1,3,6.8v-31.7h-48v36h28.7c-0.4-1-0.6-2-0.7-3z" display="inline" fill="#666"/>
			</g>
			<g id="Layer_3">
				<g id="g5296">
					<g id="layer1-8">
						<path id="path4901" fill="#676767" d="m28.1,37.9c-2.1,0.3-4.3,0.5-6.7,0.5-0.9,0-1.9,0-2.9-0.1-0.4-0.1-0.8,0.1-1.1,0.3l-6.2,4.3,0.2-6.1c0-0.7-0.4-1.3-0.9-1.6-0.3-0.1-7.1-3.8-7.1-14.2,0-11.4,11-17.6,21.3-17.6,10.9,0,19.8,7.9,19.8,17.8,0,0,0.4,3.9-1.7,7.9,1,0.6,1.9,1.3,2.7,2.2,3-5.1,2.5-10.2,2.5-10.3,0-11.6-10.5-21-23.2-21-14.2,0-24.8,9-24.8,21,0,10.3,5.7,15.1,8,16.7l-0.3,8.5c0,0.6,0.3,1.2,0.9,1.6,0.3,0.1,0.6,0.2,0.8,0.2,0.3,0,0.7-0.1,1-0.3l8.5-5.9c3.6,0.1,6.9,0,9.8-0.5-0.3-1.1-0.6-2.2-0.6-3.4z"/>
					</g>
				</g>
			</g>
			<g id="Layer_2" display="none">
				<circle id="circle5301" d="m 48,38 c 0,5.522847 -4.477153,10 -10,10 -5.522847,0 -10,-4.477153 -10,-10 0,-5.522847 4.477153,-10 10,-10 5.522847,0 10,4.477153 10,10 z" fill-opacity="0.54" display="inline" cy="38" cx="38" r="10" fill="#666"/>
			</g>
		</g>
	</g>
</svg>
