<!-- Created with Inkscape (http://www.inkscape.org/) -->
<svg id="svg4010" xmlns:rdf="http://www.w3.org/1999/02/22-rdf-syntax-ns#" xmlns="http://www.w3.org/2000/svg" viewBox="0 0 48 48" version="1.1" xmlns:cc="http://creativecommons.org/ns#" xmlns:dc="http://purl.org/dc/elements/1.1/">
	<metadata id="metadata4015">
		<rdf:RDF>
			<cc:Work rdf:about="">
				<dc:format>image/svg+xml</dc:format>
				<dc:type rdf:resource="http://purl.org/dc/dcmitype/StillImage"/>
				<dc:title/>
			</cc:Work>
		</rdf:RDF>
	</metadata>
	<g id="layer1">
		<path id="path4078" fill="#666" d="m19.104,41.607c3.254,0.41922,6.508-0.1048,7.9775-0.52402-0.52484-1.1528-0.83974-1.7817-0.94471-3.0393-1.4695,0.1048-2.9391,0.31441-4.5136,0.31441-0.94471,0-1.8894-0.1048-2.8341-0.1048-0.41987-0.1048-0.83974,0.1048-1.1546,0.31441l-5.9831,4.0873,0.20994-5.7642c0-0.73362-0.41987-1.3624-1.0497-1.6769-0.314-0.104-7.0322-3.667-7.0322-14.043-0.1049-11.423,10.811-17.502,20.993-17.502,10.812,0,19.524,7.7555,19.524,17.607,0,0,0.20994,2.9345-1.0497,6.1834,1.0497,0.73363,1.9944,1.6769,2.8341,2.8297,2.3093-4.7162,1.8894-9.1179,1.8894-9.2227,0.001-11.633-10.391-21.065-23.197-21.065-14.17,0-24.772,9.0131-24.772,21.066,0,10.165,5.5633,15.091,7.9775,16.663l-0.20993,8.3843c0,0.73362,0.3149,1.3624,0.94471,1.6769,0.3149,0.105,0.6298,0.21,0.8397,0.21,0.41987,0,0.73477-0.1048,1.0497-0.31441l8.5024-6.0786"/>
	</g>
</svg>
