<svg xmlns="http://www.w3.org/2000/svg" viewBox="0 0 48 48">
  <path d="M 6.71875 0.15625 A 1.750175 1.750175 0 0 0 5.15625 1.90625 L 5.15625 46.09375 A 1.750175 1.750175 0 0 0 6.90625 47.84375 L 40.90625 47.84375 L 41.09375 47.84375 A 1.750175 1.750175 0 0 0 42.84375 46.09375 L 42.84375 14.90625 A 1.750175 1.750175 0 0 0 42.40625 13.75 L 30.8125 0.75 A 1.750175 1.750175 0 0 0 29.5 0.15625 L 6.90625 0.15625 A 1.750175 1.750175 0 0 0 6.71875 0.15625 z M 8.65625 3.65625 L 27.5625 3.65625 L 27.5625 15.1875 A 1.750175 1.750175 0 0 0 29.3125 16.9375 L 39.34375 16.9375 L 39.34375 44.34375 L 8.65625 44.34375 L 8.65625 3.65625 z M 31.0625 6.28125 L 37.4375 13.4375 L 31.0625 13.4375 L 31.0625 6.28125 z M 16 26 L 16 30 L 33 30 L 33 26 L 16 26 z M 16 36 L 16 40 L 33 40 L 33 36 L 16 36 z " />
</svg>
