<!-- Created with Inkscape (http://www.inkscape.org/) -->
<svg id="svg4220" xmlns:rdf="http://www.w3.org/1999/02/22-rdf-syntax-ns#" xmlns="http://www.w3.org/2000/svg" viewBox="0 0 48 48" version="1.1" xmlns:cc="http://creativecommons.org/ns#" xmlns:dc="http://purl.org/dc/elements/1.1/">
	<metadata id="metadata4225">
		<rdf:RDF>
			<cc:Work rdf:about="">
				<dc:format>image/svg+xml</dc:format>
				<dc:type rdf:resource="http://purl.org/dc/dcmitype/StillImage"/>
				<dc:title/>
			</cc:Work>
		</rdf:RDF>
	</metadata>
	<g id="layer1">
		<g id="g4324">
			<g id="g4326">
				<path id="path4328" fill="#666" d="m23.9,10.6c-2.9,0-5.2-2.3-5.2-5.2s2.3-5.2,5.2-5.2,5.2,2.3,5.2,5.2-2.3,5.2-5.2,5.2zm0-8.2c-1.7,0-3,1.3-3,3s1.3,3,3,3,3-1.3,3-3-1.3-3-3-3z"/>
			</g>
			<g id="g4330">
				<path id="path4332" fill="#666" d="m8.5,26.1c-2.9,0-5.2-2.3-5.2-5.2s2.3-5.2,5.2-5.2,5.2,2.3,5.2,5.2-2.4,5.2-5.2,5.2zm0-8.2c-1.7,0-3,1.3-3,3s1.3,3,3,3,3-1.3,3-3-1.4-3-3-3z"/>
			</g>
			<g id="g4334">
				<path id="path4336" fill="#666" d="m39.5,26.1c-2.9,0-5.2-2.3-5.2-5.2s2.3-5.2,5.2-5.2,5.2,2.3,5.2,5.2-2.3,5.2-5.2,5.2zm0-8.2c-1.7,0-3,1.3-3,3s1.3,3,3,3,3-1.3,3-3-1.3-3-3-3z"/>
			</g>
			<g id="g4338">
				<path id="path4340" fill="#666" d="M23.9,32.2h-2.9c-0.6,0-1.1-0.5-1.1-1.1v-7.3c-4.8-2.2-4.3-10.3-4.3-10.7,0-0.6,0.5-1,1.1-1h7.2c0.6,0,1.1,0.5,1.1,1.1s-0.5,1.1-1.1,1.1h-6.1c0.1,2.1,0.5,6.8,3.5,7.7,0.5,0.1,0.8,0.6,0.8,1.1v7h1.8c0.6,0,1.1,0.5,1.1,1.1s-0.5,1-1.1,1z"/>
			</g>
			<g id="g4342">
				<path id="path4344" fill="#666" d="m26.8,32.2h-2.9c-0.6,0-1.1-0.5-1.1-1.1s0.5-1.1,1.1-1.1h1.8v-7c0-0.5,0.3-0.9,0.8-1.1,3-0.9,3.5-5.6,3.5-7.7h-6.1c-0.6,0-1.1-0.5-1.1-1.1s0.5-1.1,1.1-1.1h7.2c0.6,0,1.1,0.5,1.1,1,0,0.4,0.5,8.5-4.3,10.7v7.3c0,0.7-0.5,1.2-1.1,1.2z"/>
			</g>
			<g id="g4346">
				<path id="path4348" fill="#666" d="M8.5,47.8h-2.9c-0.6,0-1.1-0.5-1.1-1.1v-7.3c-4.8-2.2-4.3-10.3-4.3-10.7,0-0.6,0.5-1,1.1-1h7.2c0.6,0,1.1,0.5,1.1,1.1s-0.5,1.1-1.1,1.1h-6.1c0.1,2.1,0.5,6.8,3.5,7.7,0.5,0.1,0.8,0.6,0.8,1.1v7h1.8c0.6,0,1.1,0.5,1.1,1.1s-0.5,1-1.1,1z"/>
			</g>
			<g id="g4350">
				<path id="path4352" fill="#666" d="M11.4,47.8h-2.9c-0.6,0-1.1-0.5-1.1-1.1s0.5-1.1,1.1-1.1h1.8v-7c0-0.5,0.3-0.9,0.8-1.1,3-0.9,3.5-5.6,3.5-7.7h-6.1c-0.6,0-1.1-0.5-1.1-1.1s0.5-1.1,1.1-1.1h7.2c0.6,0,1.1,0.5,1.1,1,0,0.4,0.5,8.5-4.3,10.7v7.3c0,0.8-0.5,1.2-1.1,1.2z"/>
			</g>
			<g id="g4354">
				<path id="path4356" fill="#666" d="m39.5,47.8h-2.9c-0.6,0-1.1-0.5-1.1-1.1v-7.3c-4.8-2.2-4.3-10.3-4.3-10.7,0-0.6,0.5-1,1.1-1h7.2c0.6,0,1.1,0.5,1.1,1.1s-0.5,1.1-1.1,1.1h-6.1c0.1,2.1,0.5,6.8,3.5,7.7,0.5,0.1,0.8,0.6,0.8,1.1v7h1.8c0.6,0,1.1,0.5,1.1,1.1s-0.5,1-1.1,1z"/>
			</g>
			<g id="g4358">
				<path id="path4360" fill="#666" d="m42.4,47.8h-2.9c-0.6,0-1.1-0.5-1.1-1.1s0.5-1.1,1.1-1.1h1.8v-7c0-0.5,0.3-0.9,0.8-1.1,3-0.9,3.5-5.6,3.5-7.7h-6.1c-0.6,0-1.1-0.5-1.1-1.1s0.5-1.1,1.1-1.1h7.2c0.6,0,1.1,0.5,1.1,1,0,0.4,0.5,8.5-4.3,10.7v7.3c0,0.8-0.5,1.2-1.1,1.2z"/>
			</g>
		</g>
	</g>
</svg>
