<!-- Created with Inkscape (http://www.inkscape.org/) -->
<svg id="svg2985" xmlns:rdf="http://www.w3.org/1999/02/22-rdf-syntax-ns#" xmlns="http://www.w3.org/2000/svg" viewBox="0 0 48 48" version="1.1" xmlns:cc="http://creativecommons.org/ns#" xmlns:dc="http://purl.org/dc/elements/1.1/">
	<metadata id="metadata2990">
		<rdf:RDF>
			<cc:Work rdf:about="">
				<dc:format>image/svg+xml</dc:format>
				<dc:type rdf:resource="http://purl.org/dc/dcmitype/StillImage"/>
				<dc:title/>
			</cc:Work>
		</rdf:RDF>
	</metadata>
	<g id="layer1">
		<g id="g3088" transform="translate(0.05,0)">
			<g id="g3090">
				<path id="path3092" fill="#666" d="M43.4,12h-38.9c-2.4,0-4.3-1.3-4.3-3.5s1.9-3.5,4.3-3.5h38.9c2.4,0,4.3,1.3,4.3,3.5s-1.9,3.5-4.3,3.5z"/>
			</g>
			<g id="g3094">
				<path id="path3096" fill="#666" d="M43.4,28h-38.9c-2.4,0-4.3-1.8-4.3-4s1.9-4,4.3-4h38.9c2.4,0,4.3,1.8,4.3,4s-1.9,4-4.3,4z"/>
			</g>
			<g id="g3098">
				<path id="path3100" fill="#666" d="M43.4,43h-38.9c-2.4,0-4.3-1.3-4.3-3.5s1.9-3.5,4.3-3.5h38.9c2.4,0,4.3,1.3,4.3,3.5s-1.9,3.5-4.3,3.5z"/>
			</g>
		</g>
	</g>
</svg>
