<svg xmlns="http://www.w3.org/2000/svg" viewBox="0 0 48 48">
  <path d="M 24 0 C 13.5 0 4.90625 8.49375 4.90625 19.09375 C 4.90625 29.69375 24 48 24 48 C 24 48 43.09375 29.59375 43.09375 19.09375 C 43.09375 8.59375 34.6 0 24 0 z M 24 6.90625 C 30.2 6.90625 35.1875 11.89375 35.1875 18.09375 C 35.2875 24.29375 30.2 29.3125 24 29.3125 C 17.8 29.3125 12.8125 24.29375 12.8125 18.09375 C 12.8125 11.89375 17.8 6.90625 24 6.90625 z M 24 7.6875 C 18.2 7.6875 13.5 12.3875 13.5 18.1875 C 13.5 23.9875 18.2 28.6875 24 28.6875 C 29.8 28.6875 34.5 23.89375 34.5 18.09375 C 34.5 12.29375 29.8 7.6875 24 7.6875 z M 23.5 12 L 24.5 12 L 24.5 17 L 29.5 17 L 29.5 18 L 24.5 18 L 24.5 23 L 23.5 23 L 23.5 18 L 18.5 18 L 18.5 17 L 23.5 17 L 23.5 12 z " />
</svg>
