<?xml version="1.0" encoding="UTF-8" standalone="no"?>
<!-- Created with Inkscape (http://www.inkscape.org/) -->

<svg
   xmlns:dc="http://purl.org/dc/elements/1.1/"
   xmlns:cc="http://creativecommons.org/ns#"
   xmlns:rdf="http://www.w3.org/1999/02/22-rdf-syntax-ns#"
   xmlns:svg="http://www.w3.org/2000/svg"
   xmlns="http://www.w3.org/2000/svg"
   xmlns:sodipodi="http://sodipodi.sourceforge.net/DTD/sodipodi-0.dtd"
   xmlns:inkscape="http://www.inkscape.org/namespaces/inkscape"
   id="svg3190"
   viewBox="0 0 64 13.015803"
   version="1.1"
   inkscape:version="0.48.5 r10040"
   width="100%"
   height="100%"
   sodipodi:docname="Mein_Berlin_Logo_2.svg">
  <defs
     id="defs19" />
  <sodipodi:namedview
     pagecolor="#ffffff"
     bordercolor="#666666"
     borderopacity="1"
     objecttolerance="10"
     gridtolerance="10"
     guidetolerance="10"
     inkscape:pageopacity="0"
     inkscape:pageshadow="2"
     inkscape:window-width="1054"
     inkscape:window-height="1063"
     id="namedview17"
     showgrid="false"
     fit-margin-top="0"
     fit-margin-left="0"
     fit-margin-right="0"
     fit-margin-bottom="0"
     inkscape:zoom="3.6875"
     inkscape:cx="32"
     inkscape:cy="6.5079015"
     inkscape:window-x="0"
     inkscape:window-y="1095"
     inkscape:window-maximized="0"
     inkscape:current-layer="svg3190" />
  <metadata
     id="metadata3195">
    <rdf:RDF>
      <cc:Work
         rdf:about="">
        <dc:format>image/svg+xml</dc:format>
        <dc:type
           rdf:resource="http://purl.org/dc/dcmitype/StillImage" />
        <dc:title />
      </cc:Work>
    </rdf:RDF>
  </metadata>
  <g
     id="layer1"
     transform="translate(-2.4344512e-7,-25.492098)">
    <g
       id="g3382"
       transform="matrix(0.63962616,0,0,0.63962616,0.03738376,0.04973071)"
       style="fill:#ec265c">
      <g
         id="g3384">
        <path
           id="path3386"
           d="m 61.5,54 c 1,0.1 1.7,0.7 1.7,1.8 0,1.3 -0.8,2.1 -2.7,2.1 h -2.7 v -7.6 h 2.7 c 1.5,0 2.4,0.7 2.4,1.9 0,1 -0.5,1.6 -1.4,1.8 z m -1.2,-0.4 c 0.7,0 1.2,-0.3 1.2,-1.1 0,-0.8 -0.5,-1.1 -1.3,-1.1 h -1.1 v 2.1 l 1.2,0.1 z m -1.1,3.1 1.3,0 c 0.8,0 1.3,-0.3 1.3,-1.1 0,-0.6 -0.4,-1 -1.3,-1 h -1.3 v 2.1 z"
           inkscape:connector-curvature="0" />
        <path
           id="path3388"
           d="m 70.7,57.9 -4.9,0 0,-7.6 4.9,0 0,1.2 -3.5,0 0,2 3.1,0 0,1.2 -3.1,0 0,2 3.5,0 0,1.2 z"
           inkscape:connector-curvature="0" />
        <path
           id="path3390"
           d="m 77.8,57.9 c -0.2,-0.2 -0.3,-0.4 -0.4,-0.7 l -0.3,-1.3 c -0.2,-0.8 -0.6,-1 -1.3,-1 h -0.9 v 3 h -1.4 v -7.6 h 2.8 c 1.7,0 2.7,0.7 2.7,2.2 0,1.2 -0.8,1.8 -1.7,1.9 0.7,0.1 1.1,0.4 1.3,1.2 l 0.4,1.5 c 0.1,0.3 0.2,0.6 0.4,0.8 h -1.6 z m -2.9,-4.1 1.3,0 c 0.9,0 1.3,-0.4 1.3,-1.2 0,-0.8 -0.4,-1.2 -1.3,-1.2 h -1.3 v 2.4 z"
           inkscape:connector-curvature="0" />
        <path
           id="path3392"
           d="m 83.2,50.2 0,6.4 3.3,0 0,1.2 -4.7,0 0,-7.6 1.4,0 z"
           inkscape:connector-curvature="0" />
        <path
           id="path3394"
           d="m 90,50.2 0,7.6 -1.4,0 0,-7.6 1.4,0 z"
           inkscape:connector-curvature="0" />
        <path
           id="path3396"
           d="m 97.8,54.4 c 0.5,0.6 0.8,1.3 0.8,1.3 h 0.1 c 0,0 -0.1,-0.8 -0.1,-1.7 v -3.7 h 1.4 v 7.6 H 98.7 L 95.8,53.8 C 95.3,53.1 95,52.4 95,52.4 h -0.1 c 0,0 0.1,0.8 0.1,1.8 v 3.7 H 93.6 V 50.3 H 95 l 2.8,4.1 z"
           inkscape:connector-curvature="0" />
      </g>
      <g
         id="g3398">
        <path
           id="path3400"
           d="m 53.5,58.1 c -0.1,-0.3 -0.2,-0.5 -0.3,-0.8 -0.4,-1 -0.9,-2 -1.2,-3.1 -0.3,-1.2 -0.2,-2.4 -0.5,-3.6 -0.2,-0.8 -1.1,-1.2 -1.8,-0.7 -1,0.7 -1.7,1.7 -2.5,2.6 -0.6,0.6 -0.7,1.6 -1.5,2.1 -0.3,-1.5 0.2,-2.9 0.1,-4.3 -0.1,-0.6 -0.1,-1.3 -0.6,-1.6 -0.6,-0.4 -1.3,-0.3 -1.9,0.1 -1.5,1.1 -2.5,2.6 -3.5,4.1 -0.5,0.7 -1,1.4 -1.5,2.2 -0.1,-0.1 -0.1,-0.2 -0.1,-0.3 -0.1,-1.8 0,-3.6 0.2,-5.5 0.1,-0.5 -0.2,-0.8 -0.6,-1 -0.3,-0.1 -0.6,0 -0.7,0.3 -0.3,0.5 -0.5,1.1 -0.8,1.6 -1.3,2.4 -2.6,4.7 -4.6,6.6 -0.5,0.5 -1.2,0.7 -1.8,0.4 -0.9,-0.4 -1.8,-1 -2.1,-2.1 -0.2,-0.6 -0.7,-1.5 -0.1,-1.7 0.9,-0.3 1.5,-0.9 2,-1.5 1.2,-1.4 3,-2.6 2,-4.9 -0.2,-0.5 -0.6,-0.8 -1,-0.8 -0.5,-0.1 -1.1,-0.1 -1.5,0.3 -0.5,0.5 -0.9,1.1 -1.3,1.8 -0.8,1.4 -1.4,3 -1.6,4.5 -0.2,1.9 0.3,3.7 2.2,4.9 2.6,1.7 4.1,0.6 5.5,-1.3 1,-1.4 1.9,-2.8 2.9,-4.3 0,0.3 0.1,0.4 0.1,0.6 0,1.2 -0.1,2.4 0.2,3.5 0.1,0.6 0.5,1 1.1,1.2 0.2,0 0.5,-0.2 0.7,-0.4 0.6,-0.9 1.3,-1.8 1.8,-2.8 0.9,-1.6 1.9,-3 3.3,-4.1 0.1,-0.1 0.2,-0.3 0.4,-0.1 0.2,0.1 0.3,0.3 0.3,0.5 0,0.7 -0.1,1.3 -0.1,2 -0.1,1.4 0,2.8 -0.2,4.1 -0.1,0.6 0,1 0.5,1.2 0.5,0.2 1,-0.1 1.2,-0.6 0.7,-1.9 1.7,-3.6 3.1,-5.1 0.3,-0.3 0.7,-0.9 1.2,-0.7 0.4,0.1 0.2,0.7 0.3,1.1 0.1,0.8 0.2,1.6 0.5,2.4 0.4,1.2 0.9,2.3 1.3,3.4 0.2,0.6 0.7,0.5 1.1,0.5 -0.1,0 -0.1,-0.5 -0.2,-0.7 z M 27.8,51.2 c 0.6,-1.2 0.9,-2.4 1.8,-3.4 0.2,-0.2 0.3,-0.3 0.5,-0.2 0.2,0.1 0.2,0.3 0.2,0.7 -0.2,1.2 -1.2,2.2 -2.2,3.1 -0.1,0.1 -0.2,0 -0.3,0 v -0.2 z"
           inkscape:connector-curvature="0" />
        <path
           id="path3402"
           d="m 24.3,54.5 c -0.4,-1.2 -0.7,-2.4 -1.2,-3.6 -0.3,-0.9 -0.8,-1.7 -1.8,-1.6 -0.8,0.1 -1.2,0.9 -1.5,1.5 -0.7,1.2 -1.3,2.4 -2.1,3.7 -0.1,-0.3 -0.1,-0.4 -0.1,-0.5 -0.3,-1.8 -0.7,-4.1 -1,-5.8 -0.1,-0.5 -0.4,-0.9 -0.9,-1.1 -0.4,-0.1 -0.9,0.1 -1.2,0.5 -1,1.8 -1.5,3.5 -2.1,5.4 -0.5,1.6 -1.2,3.6 -1.9,5.2 -0.1,0.1 -0.1,0.1 -0.2,0.2 0,-0.1 -0.1,-0.2 -0.1,-0.4 C 10,55.6 10,53.3 10,50.8 c 0,-2.2 0.3,-4.3 0.3,-6.8 0,-0.6 0,-1.4 -0.6,-1.7 -0.8,-0.4 -1.5,0.1 -2,0.7 -1.5,2 -2.9,4.2 -3.9,6.5 -1.2,2.6 -2.8,5.1 -3.7,7.9 -0.1,0.3 -0.3,0.7 0,1 0.2,0.2 0.4,0.2 0.6,0.1 0.4,-0.1 0.4,-0.5 0.5,-0.7 0.1,-0.3 0.3,-0.6 0.4,-0.9 0.9,-1.8 1.7,-3.6 2.5,-5.5 1.1,-2.5 2.6,-4.8 4,-7 0.1,-0.2 0.4,-0.6 0.7,-0.5 0.3,0.2 0.2,0.6 0.2,0.8 v 1.9 c -0.2,1.3 -0.3,2.7 -0.2,4 0.1,2.9 -0.2,5.7 0.3,8.6 0.1,0.6 0.6,0.8 1.1,0.9 0.4,0.1 0.7,-0.1 0.9,-0.4 1,-1.6 1.4,-3 2,-4.7 0.6,-1.8 1.4,-4.1 2.1,-5.9 0.1,-0.1 0.1,-0.2 0.2,0 0,0.1 0.1,0.2 0.1,0.3 0.2,2.1 0.6,4.1 0.8,6.4 0.1,0.7 0.1,1.3 1,1.5 0.2,0 0.5,-0.2 0.6,-0.4 0.9,-1.7 1.8,-3.4 2.7,-5.1 0.2,-0.4 0.5,-0.9 0.9,-1 0.3,-0.1 0.4,0.5 0.5,0.7 0.8,1.7 1.1,3.6 1.6,5.4 0.1,0.5 0.5,0.8 1,0.8 0.4,0 0.7,-0.4 0.5,-0.7 -0.5,-0.7 -0.5,-1.6 -0.8,-2.5 z"
           inkscape:connector-curvature="0" />
        <path
           id="path3404"
           d="m 36.7,41.5 c 0.7,0.1 0.9,-0.3 0.9,-0.7 0,-0.5 -0.2,-1 -0.6,-1 -0.7,-0.1 -1.3,0.1 -1.2,1.1 0,0.8 0.6,0.6 0.9,0.6 z"
           inkscape:connector-curvature="0" />
      </g>
    </g>
  </g>
</svg>
