<!-- Created with Inkscape (http://www.inkscape.org/) -->
<svg id="svg2985" xmlns:rdf="http://www.w3.org/1999/02/22-rdf-syntax-ns#" xmlns="http://www.w3.org/2000/svg" viewBox="0 0 48 48" version="1.1" xmlns:cc="http://creativecommons.org/ns#" xmlns:dc="http://purl.org/dc/elements/1.1/">
	<metadata id="metadata2990">
		<rdf:RDF>
			<cc:Work rdf:about="">
				<dc:format>image/svg+xml</dc:format>
				<dc:type rdf:resource="http://purl.org/dc/dcmitype/StillImage"/>
				<dc:title/>
			</cc:Work>
		</rdf:RDF>
	</metadata>
	<g id="layer1">
		<path id="path3072" fill="#666" d="m47.612,24.5c0.1-0.3,0.1-0.7,0-1-0.1-0.2-0.2-0.3-0.3-0.4l-12.199-12.2c-0.5-0.5-1.3-0.5-1.8,0s-0.5,1.3,0,1.8l10,10h-35.6c-2.6,0-4.8-2.1-4.8-4.8s2.1-4.8,4.8-4.8c0.7,0,1.3-0.6,1.3-1.3s-0.6-1.3-1.3-1.3c-4.1,0-7.4,3.3-7.4,7.4s3.3,7.4,7.4,7.4h35.5l-10,10c-0.5,0.5-0.5,1.3,0,1.8,0.3,0.3,0.6,0.4,0.9,0.4s0.7-0.1,0.9-0.4l12.2-12.2c0.2-0.1,0.3-0.2,0.4-0.4z"/>
	</g>
</svg>
