<!-- Created with Inkscape (http://www.inkscape.org/) -->
<svg id="svg2985" xmlns:rdf="http://www.w3.org/1999/02/22-rdf-syntax-ns#" xmlns="http://www.w3.org/2000/svg" viewBox="0 0 48 48" version="1.1" xmlns:cc="http://creativecommons.org/ns#" xmlns:dc="http://purl.org/dc/elements/1.1/">
	<metadata id="metadata2990">
		<rdf:RDF>
			<cc:Work rdf:about="">
				<dc:format>image/svg+xml</dc:format>
				<dc:type rdf:resource="http://purl.org/dc/dcmitype/StillImage"/>
				<dc:title/>
			</cc:Work>
		</rdf:RDF>
	</metadata>
	<g id="layer1">
		<path id="path3823" fill="#666" d="m39.15,15.65c-2.7,0-5,1.2-6.7,3l-15.1-7.8c0.2-0.7,0.3-1.4,0.3-2.2,0-4.8-4-8.7-8.8-8.7s-8.8,4-8.8,8.8,4,8.7,8.8,8.7c2.5,0,4.8-1,6.4-2.7l15.3,7.8c-0.1,0.6-0.2,1.1-0.2,1.7,0,0.7,0.1,1.4,0.3,2l-15.1,7.3c-1.6-1.8-4-3-6.6-3-4.9,0.1-8.9,4-8.9,8.8s4,8.7,8.8,8.7,8.8-3.9,8.8-8.7c0-0.6-0.1-1.2-0.2-1.8l15.2-7.4c1.6,1.7,3.9,2.8,6.5,2.8,4.9,0,8.8-3.9,8.8-8.7s-3.9-8.6-8.8-8.6z"/>
	</g>
</svg>
