<svg xmlns="http://www.w3.org/2000/svg" viewBox="0 0 48 48">
  <path d="M 17.3125 2.9375 C 12.797038 2.9375 8.6797896 4.3396743 5.625 6.71875 C 2.5702104 9.0978257 0.5625 12.554968 0.5625 16.40625 C 0.5625 20.223403 2.6094027 23.522668 5.59375 25.9375 C 5.547746 26.595147 5.4032084 27.824944 4.625 28.34375 A 1.750175 1.750175 0 0 0 5.6875 31.5625 C 9.4552201 31.374114 11.89941 29.94901 12.8125 29.375 C 13.279784 29.501505 13.753354 29.615701 14.15625 29.75 L 15.25 26.4375 C 14.65 26.2375 14.5625 26.2125 13.0625 25.8125 A 1.750175 1.750175 0 0 0 11.59375 26.0625 C 11.59375 26.0625 10.523474 26.634515 9.0625 27.1875 C 9.2426216 26.021919 9.15625 25.03125 9.15625 25.03125 A 1.750175 1.750175 0 0 0 8.40625 23.78125 C 5.6492897 21.824698 4.0625 19.239583 4.0625 16.40625 C 4.0625 13.757532 5.3797896 11.345924 7.75 9.5 C 10.12021 7.6540758 13.527962 6.4375 17.3125 6.4375 C 21.146235 6.4375 24.435452 7.4841702 26.75 9.125 C 29.064548 10.76583 30.399914 12.926807 30.5625 15.40625 L 34.03125 15.1875 C 33.793836 11.566943 31.791702 8.4154201 28.78125 6.28125 C 25.770798 4.1470799 21.778765 2.9375 17.3125 2.9375 z M 32.5 18.9375 C 28.490411 18.9375 24.825317 20.178944 22.09375 22.28125 C 19.362183 24.383556 17.5625 27.452449 17.5625 30.90625 C 17.5625 34.360051 19.365087 37.433857 22.09375 39.5625 C 24.822413 41.691143 28.48242 42.9375 32.5 42.9375 C 33.678456 42.9375 34.97869 42.767696 36.25 42.5 C 36.632504 42.794107 37.065503 43.152301 38.1875 43.75 C 39.693274 44.552141 41.691054 45.440953 43.90625 44.90625 A 1.750175 1.750175 0 0 0 44.75 41.96875 C 43.797273 41.016023 43.367356 40.146211 43.15625 39.53125 C 43.11772 39.419008 43.14975 39.46114 43.125 39.375 C 45.731121 37.251564 47.4375 34.334737 47.4375 31 C 47.4375 27.546199 45.634913 24.472393 42.90625 22.34375 C 40.177587 20.215107 36.51758 18.9375 32.5 18.9375 z M 32.5 22.4375 C 35.78242 22.4375 38.703663 23.497393 40.75 25.09375 C 42.796337 26.690107 43.9375 28.753801 43.9375 31 C 43.9375 33.460215 42.653673 35.597731 40.21875 37.25 A 1.750175 1.750175 0 0 0 39.4375 38.6875 C 39.4375 38.6875 39.47986 39.596211 39.84375 40.65625 C 38.674524 40.033391 37.8125 39.34375 37.8125 39.34375 A 1.750175 1.750175 0 0 0 36.1875 39.03125 C 35.170789 39.344084 33.816667 39.4375 32.5 39.4375 C 29.21758 39.4375 26.296337 38.408857 24.25 36.8125 C 22.203663 35.216143 21.0625 33.152449 21.0625 30.90625 C 21.0625 28.660051 22.175317 26.635194 24.21875 25.0625 C 26.262183 23.489806 29.209589 22.4375 32.5 22.4375 z " />
</svg>
