<!-- Created with Inkscape (http://www.inkscape.org/) -->
<svg id="svg2993" xmlns:rdf="http://www.w3.org/1999/02/22-rdf-syntax-ns#" xmlns="http://www.w3.org/2000/svg" viewBox="0 0 48 48" version="1.1" xmlns:cc="http://creativecommons.org/ns#" xmlns:dc="http://purl.org/dc/elements/1.1/">
	<metadata id="metadata2998">
		<rdf:RDF>
			<cc:Work rdf:about="">
				<dc:format>image/svg+xml</dc:format>
				<dc:type rdf:resource="http://purl.org/dc/dcmitype/StillImage"/>
				<dc:title/>
			</cc:Work>
		</rdf:RDF>
	</metadata>
	<g id="layer1">
		<g id="g3877" transform="translate(0.03325195,0)">
			<path id="path3879" fill="#666" d="M10,47c-0.3,0-0.6-0.1-0.9-0.2-0.6-0.3-1-1-1-1.8l0.2-7.9c-2.4-1.6-7.7-6.3-7.7-15.9,0-11.5,10.4-20.2,24.1-20.2,12.5,0,22.6,9,22.6,20.2,0,0.1,0.7,6.8-4.3,12.5-4.4,4.9-11.6,7.4-21.5,7.4h-2.3l-8.1,5.6c-0.3,0.2-0.7,0.3-1.1,0.3zm14.7-42.1c-9.8,0-20.3,5.7-20.3,16.3,0,9.8,6.6,13.1,6.6,13.1,0.7,0.3,1.1,1,1.1,1.8l-0.1,5.2,5.5-3.8c0.3-0.2,0.8-0.4,1.2-0.3,1,0,1.9,0.1,2.8,0.1,8.7,0,15-2.1,18.6-6.1,3.9-4.4,3.3-9.6,3.3-9.7,0.1-9.3-8.3-16.6-18.7-16.6z"/>
		</g>
	</g>
</svg>
