<!-- Created with Inkscape (http://www.inkscape.org/) -->
<svg id="svg4220" xmlns:rdf="http://www.w3.org/1999/02/22-rdf-syntax-ns#" xmlns="http://www.w3.org/2000/svg" viewBox="0 0 48 48" version="1.1" xmlns:cc="http://creativecommons.org/ns#" xmlns:dc="http://purl.org/dc/elements/1.1/">
	<metadata id="metadata4225">
		<rdf:RDF>
			<cc:Work rdf:about="">
				<dc:format>image/svg+xml</dc:format>
				<dc:type rdf:resource="http://purl.org/dc/dcmitype/StillImage"/>
				<dc:title/>
			</cc:Work>
		</rdf:RDF>
	</metadata>
	<g id="layer1">
		<g id="g4634">
			<g id="g4636">
				<path id="path4638" fill="#666" d="M47.8,41.5h-47.6v-35h47.6v35zm-44.4-3.2h41.3v-28.6h-41.3v28.6z"/>
			</g>
			<g id="g4640">
				<path id="path4642" fill="#666" d="m7.3,29.4c-0.4,0-0.8-0.2-1.1-0.5-0.6-0.6-0.6-1.6,0-2.2l8.8-8.8,8.8,8.8c0.6,0.6,0.6,1.6,0,2.2s-1.6,0.6-2.2,0l-6.6-6.5-6.6,6.6c-0.3,0.3-0.7,0.4-1.1,0.4z"/>
			</g>
			<g id="g4644">
				<path id="path4646" fill="#666" d="m32.1,30.1-8.8-8.8c-0.6-0.6-0.6-1.6,0-2.2s1.6-0.6,2.2,0l6.6,6.6,6.6-6.6c0.6-0.6,1.6-0.6,2.2,0s0.6,1.6,0,2.2l-8.8,8.8z"/>
			</g>
		</g>
	</g>
</svg>
