<!-- Created with Inkscape (http://www.inkscape.org/) -->
<svg id="svg3190" xmlns:rdf="http://www.w3.org/1999/02/22-rdf-syntax-ns#" xmlns="http://www.w3.org/2000/svg" viewBox="0 0 64 64" version="1.1" xmlns:cc="http://creativecommons.org/ns#" xmlns:dc="http://purl.org/dc/elements/1.1/">
	<metadata id="metadata3195">
		<rdf:RDF>
			<cc:Work rdf:about="">
				<dc:format>image/svg+xml</dc:format>
				<dc:type rdf:resource="http://purl.org/dc/dcmitype/StillImage"/>
				<dc:title/>
			</cc:Work>
		</rdf:RDF>
	</metadata>
	<g id="layer1">
		<g id="g3570" transform="matrix(1.3473684,0,0,1.3473684,-0.26947318,-0.3368416)">
			<g id="g3552">
				<path id="path3554" fill="#666" d="m34.8,41.4h-34.6v-34.8h47.5v22.3c-1.6-1.2-2.9-1.3-2.9-1.3v-18.1h-41.6v28.9h30.4c0,0.1,0.4,2.2,1.2,3z"/>
			</g>
			<g id="g3556">
				<path id="path3558" fill="#666" d="m22.7,29.3c-0.4,0-0.7-0.1-1-0.4l-6.7-6.7-6.7,6.7c-0.6,0.6-1.5,0.6-2.1,0s-0.6-1.5,0-2.1l8.7-8.7,8.7,8.7c0.6,0.6,0.6,1.5,0,2.1-0.2,0.3-0.6,0.4-0.9,0.4z"/>
			</g>
			<g id="g3560">
				<path id="path3562" fill="#666" d="m32.1,29.9-8.7-8.7c-0.6-0.6-0.6-1.5,0-2.1s1.5-0.6,2.1,0l6.7,6.7,6.7-6.7c0.6-0.6,1.5-0.6,2.1,0s0.6,1.5,0,2.1l-8.9,8.7z"/>
			</g>
		</g>
	</g>
</svg>
