<!-- Created with Inkscape (http://www.inkscape.org/) -->
<svg id="svg3183" xmlns:rdf="http://www.w3.org/1999/02/22-rdf-syntax-ns#" xmlns="http://www.w3.org/2000/svg" viewBox="0 0 48 48" version="1.1" xmlns:cc="http://creativecommons.org/ns#" xmlns:dc="http://purl.org/dc/elements/1.1/">
	<metadata id="metadata3188">
		<rdf:RDF>
			<cc:Work rdf:about="">
				<dc:format>image/svg+xml</dc:format>
				<dc:type rdf:resource="http://purl.org/dc/dcmitype/StillImage"/>
				<dc:title/>
			</cc:Work>
		</rdf:RDF>
	</metadata>
	<g id="layer1">
		<g id="g3308" transform="matrix(0.0849112,0,0,0.0810406,-1.2757961,-9.8803954)">
			<g id="g3310" enable-background="new    ">
				<path id="path3312" fill="#F00" d="m277.6,635.6v-51.1h40.5v51.1h-40.5zm3.9-241.4v-102.6h32.8v102.6l-7.3,155.7h-18.3l-7.2-155.7z"/>
			</g>
			<g id="g3314">
				<g id="g3316">
					<path id="path3318" fill="#F00" d="m297.6,147.1c2.4,0,9.5,4.8,16.7,19l235.7,479.9c6,13.1,7.1,25,2.4,32.1-4.8,7.1-15.5,10.7-29.8,10.7h-450c-14.3,0-25-3.6-29.8-10.7s-3.6-19,2.4-32.1l235.8-479.8c7.1-14.3,14.3-19.1,16.6-19.1m0-23.8c-14.3,0-27.4,10.7-38.1,32.1l-235.7,479.8c-20.2,42.9,0,77.4,47.6,77.4h451.2c47.6,0,69.1-34.5,47.6-77.4l-234.5-479.7c-10.7-21.5-23.8-32.2-38.1-32.2z"/>
				</g>
			</g>
		</g>
	</g>
</svg>
