<!-- Created with Inkscape (http://www.inkscape.org/) -->
<svg id="svg2985" xmlns:rdf="http://www.w3.org/1999/02/22-rdf-syntax-ns#" xmlns="http://www.w3.org/2000/svg" viewBox="0 0 48 48" version="1.1" xmlns:cc="http://creativecommons.org/ns#" xmlns:dc="http://purl.org/dc/elements/1.1/">
	<metadata id="metadata2990">
		<rdf:RDF>
			<cc:Work rdf:about="">
				<dc:format>image/svg+xml</dc:format>
				<dc:type rdf:resource="http://purl.org/dc/dcmitype/StillImage"/>
				<dc:title/>
			</cc:Work>
		</rdf:RDF>
	</metadata>
	<g id="layer1">
		<g id="g3514" transform="matrix(0.9561753,0,0,0.9561753,0.0956175,3.1075697)">
			<g id="g3516">
				<path id="path3518" fill="#818181" d="M33.8,6h-17.8c-0.5,0-1-0.4-1-1s0.4-1,1-1h17.8c0.5,0,1,0.4,1,1s-0.4,1-1,1z"/>
			</g>
			<g id="g3520">
				<path id="path3522" fill="#818181" d="M49,43.7h-48.1c-0.5,0-1-0.4-1-1v-37.7c0-0.5,0.4-1,1-1h7.6c0.5,0,1,0.4,1,1s-0.5,1-1,1h-6.6v35.7h46.1v-35.7h-7.2c-0.5,0-1-0.4-1-1s0.4-1,1-1h8.2c0.5,0,1,0.4,1,1v37.7c0,0.5-0.5,1-1,1z"/>
			</g>
			<g id="g3524">
				<path id="path3526" fill="#818181" d="M49.1,16.7h-48.1c-0.5,0-1-0.4-1-1s0.4-1,1-1h48.1c0.5,0,1,0.4,1,1s-0.5,1-1,1z"/>
			</g>
			<g id="g3528">
				<path id="path3530" fill="#818181" d="M16,10.6h-7.1c-0.5,0-1-0.4-1-1v-8.6c0-0.5,0.4-1,1-1h7.1c0.5,0,1,0.4,1,1v8.7c0,0.5-0.5,0.9-1,0.9zm-6.1-1.9h5.1v-6.8h-5.1v6.8z"/>
			</g>
			<g id="g3532">
				<path id="path3534" fill="#818181" d="m40.9,10.6h-7.1c-0.5,0-1-0.4-1-1v-8.6c0-0.5,0.4-1,1-1h7.1c0.5,0,1,0.4,1,1v8.7c0,0.5-0.4,0.9-1,0.9zm-6.1-1.9h5.2v-6.8h-5.2v6.8z"/>
			</g>
		</g>
	</g>
</svg>
