<?xml version="1.0" encoding="UTF-8" standalone="no"?>
<!-- Created with Inkscape (http://www.inkscape.org/) -->

<svg
   xmlns:dc="http://purl.org/dc/elements/1.1/"
   xmlns:cc="http://creativecommons.org/ns#"
   xmlns:rdf="http://www.w3.org/1999/02/22-rdf-syntax-ns#"
   xmlns:svg="http://www.w3.org/2000/svg"
   xmlns="http://www.w3.org/2000/svg"
   xmlns:sodipodi="http://sodipodi.sourceforge.net/DTD/sodipodi-0.dtd"
   xmlns:inkscape="http://www.inkscape.org/namespaces/inkscape"
   id="svg2985"
   viewBox="0 0 48 48"
   version="1.1"
   inkscape:version="0.48.5 r10040"
   width="100%"
   height="100%"
   sodipodi:docname="calendar.svg">
  <defs
     id="defs15" />
  <sodipodi:namedview
     pagecolor="#ffffff"
     bordercolor="#666666"
     borderopacity="1"
     objecttolerance="10"
     gridtolerance="10"
     guidetolerance="10"
     inkscape:pageopacity="0"
     inkscape:pageshadow="2"
     inkscape:window-width="1054"
     inkscape:window-height="1063"
     id="namedview13"
     showgrid="false"
     inkscape:zoom="4.9166667"
     inkscape:cx="24"
     inkscape:cy="24"
     inkscape:window-x="0"
     inkscape:window-y="1095"
     inkscape:window-maximized="0"
     inkscape:current-layer="svg2985" />
  <metadata
     id="metadata2990">
    <rdf:RDF>
      <cc:Work
         rdf:about="">
        <dc:format>image/svg+xml</dc:format>
        <dc:type
           rdf:resource="http://purl.org/dc/dcmitype/StillImage" />
        <dc:title />
      </cc:Work>
    </rdf:RDF>
  </metadata>
  <path
     style="font-size:medium;font-style:normal;font-variant:normal;font-weight:normal;font-stretch:normal;text-indent:0;text-align:start;text-decoration:none;line-height:normal;letter-spacing:normal;word-spacing:normal;text-transform:none;direction:ltr;block-progression:tb;writing-mode:lr-tb;text-anchor:start;baseline-shift:baseline;color:#000000;fill:#808080;fill-opacity:1;stroke:none;stroke-width:1.95851111;marker:none;visibility:visible;display:inline;overflow:visible;enable-background:accumulate;font-family:Sans;-inkscape-font-specification:Sans"
     d="m 15.25,2.96875 a 0.97935348,0.97935348 0 0 0 0.21875,1.9375 l 16.96875,0 a 0.97935348,0.97935348 0 1 0 0,-1.9375 l -16.96875,0 a 0.97935348,0.97935348 0 0 0 -0.21875,0 z"
     id="line3274"
     inkscape:connector-curvature="0" />
  <path
     style="font-size:medium;font-style:normal;font-variant:normal;font-weight:normal;font-stretch:normal;text-indent:0;text-align:start;text-decoration:none;line-height:normal;letter-spacing:normal;word-spacing:normal;text-transform:none;direction:ltr;block-progression:tb;writing-mode:lr-tb;text-anchor:start;baseline-shift:baseline;color:#000000;fill:#808080;fill-opacity:1;stroke:none;stroke-width:2;marker:none;visibility:visible;display:inline;overflow:visible;enable-background:accumulate;font-family:Sans;-inkscape-font-specification:Sans"
     d="m 1.0118535,2.9377138 a 0.97057069,0.98821581 0 0 0 -0.97047367,0.988117 l 0,43.1066042 a 0.97057069,0.98821581 0 0 0 0.97047367,0.988117 l 45.9761885,0 a 0.97057069,0.98821581 0 0 0 0.970474,-0.988117 l 0,-43.1066042 a 0.97057069,0.98821581 0 0 0 -0.970474,-0.988117 l -7.854771,0 a 0.97057069,0.98821581 0 1 0 0,1.976234 l 6.884298,0 0,41.1303702 -44.0352419,0 0,-41.1303702 6.1867695,0 a 0.97057069,0.98821581 0 1 0 0,-1.976234 l -7.1572431,0 z"
     id="polyline3276"
     inkscape:connector-curvature="0" />
  <path
     style="font-size:medium;font-style:normal;font-variant:normal;font-weight:normal;font-stretch:normal;text-indent:0;text-align:start;text-decoration:none;line-height:normal;letter-spacing:normal;word-spacing:normal;text-transform:none;direction:ltr;block-progression:tb;writing-mode:lr-tb;text-anchor:start;baseline-shift:baseline;color:#000000;fill:#808080;fill-opacity:1;stroke:none;stroke-width:1.95851111;marker:none;visibility:visible;display:inline;overflow:visible;enable-background:accumulate;font-family:Sans;-inkscape-font-specification:Sans"
     d="M 0.8125,13.4375 A 0.98882921,0.98882921 0 1 0 1,15.40625 l 46,0 a 0.984375,0.984375 0 0 0 0,-1.96875 l -46,0 a 0.97935348,0.97935348 0 0 0 -0.1875,0 z"
     id="line3278"
     inkscape:connector-curvature="0" />
  <g
     id="g3280"
     transform="matrix(0.97047364,0,0,0.988117,-0.26189318,-1.2000261)">
    <path
       id="path3282"
       d="m 14.2,3.2 v 4.5 h -3 V 3.2 h 3 m 2,-2 h -7 v 8.5 h 7 V 1.2 z"
       inkscape:connector-curvature="0"
       style="fill:#808080" />
  </g>
  <g
     id="g3284"
     transform="matrix(0.97047364,0,0,0.988117,-0.26189318,-1.2000261)">
    <path
       id="path3286"
       d="m 38.7,3.2 v 4.5 h -3 V 3.2 h 3 m 2,-2 h -7 v 8.5 h 7 V 1.2 z"
       inkscape:connector-curvature="0"
       style="fill:#808080" />
  </g>
</svg>
