<?xml version="1.0" encoding="UTF-8" standalone="no"?>
<!-- Created with Inkscape (http://www.inkscape.org/) -->

<svg
   xmlns:dc="http://purl.org/dc/elements/1.1/"
   xmlns:cc="http://creativecommons.org/ns#"
   xmlns:rdf="http://www.w3.org/1999/02/22-rdf-syntax-ns#"
   xmlns:svg="http://www.w3.org/2000/svg"
   xmlns="http://www.w3.org/2000/svg"
   xmlns:sodipodi="http://sodipodi.sourceforge.net/DTD/sodipodi-0.dtd"
   xmlns:inkscape="http://www.inkscape.org/namespaces/inkscape"
   id="svg2985"
   viewBox="0 0 48 48"
   version="1.1"
   inkscape:version="0.48.5 r10040"
   width="100%"
   height="100%"
   sodipodi:docname="documents.svg">
  <defs
     id="defs12" />
  <sodipodi:namedview
     pagecolor="#ffffff"
     bordercolor="#666666"
     borderopacity="1"
     objecttolerance="10"
     gridtolerance="10"
     guidetolerance="10"
     inkscape:pageopacity="0"
     inkscape:pageshadow="2"
     inkscape:window-width="1054"
     inkscape:window-height="1063"
     id="namedview10"
     showgrid="false"
     inkscape:zoom="4.9166667"
     inkscape:cx="24"
     inkscape:cy="24"
     inkscape:window-x="0"
     inkscape:window-y="1095"
     inkscape:window-maximized="0"
     inkscape:current-layer="svg2985" />
  <metadata
     id="metadata2990">
    <rdf:RDF>
      <cc:Work
         rdf:about="">
        <dc:format>image/svg+xml</dc:format>
        <dc:type
           rdf:resource="http://purl.org/dc/dcmitype/StillImage" />
        <dc:title />
      </cc:Work>
    </rdf:RDF>
  </metadata>
  <path
     style="fill:#808080"
     id="path5161"
     d="M 44.428571,13.346032 V 37.31746 H 14.466667 V 0.028572 H 30.809524 V 10.68254 c 0,1.229304 0.419047,2.765934 2.723809,2.663492 h 10.895238 z"
     inkscape:connector-curvature="0" />
  <polygon
     style="fill:#808080"
     id="polygon5163"
     points="13.4,6.9 13.4,40.7 41.9,40.7 41.9,43.3 10.7,43.3 10.7,6.9 "
     transform="matrix(1.047619,0,0,1.02442,-2.190475,-1.712942)" />
  <polygon
     style="fill:#808080"
     id="polygon5165"
     points="8.1,12.1 8.1,45.9 39.4,45.9 39.4,48.5 5.5,48.5 5.5,12.1 "
     transform="matrix(1.047619,0,0,1.02442,-2.190475,-1.712942)" />
  <path
     style="fill:#808080"
     id="path5167"
     d="m 44.428571,10.68254 h -8.171429 c -1.885714,0 -2.723809,-0.921978 -2.723809,-2.663492 V 0.028572 L 44.428571,10.68254 z"
     inkscape:connector-curvature="0" />
</svg>
