<?xml version="1.0" encoding="utf-8"?>
<!-- Generator: Adobe Illustrator 16.0.0, SVG Export Plug-In . SVG Version: 6.00 Build 0)  -->
<!DOCTYPE svg PUBLIC "-//W3C//DTD SVG 1.1//EN" "http://www.w3.org/Graphics/SVG/1.1/DTD/svg11.dtd">
<svg version="1.1" id="Layer_1" xmlns="http://www.w3.org/2000/svg" xmlns:xlink="http://www.w3.org/1999/xlink" x="0px" y="0px"
	 width="17px" height="13px" viewBox="0 0 17 13" enable-background="new 0 0 17 13" xml:space="preserve">
<path fill="#818181" d="M16,2H5V1h11V2z M17,0H4v3h13V0z"/>
<path fill="#818181" d="M2,2H1V1h1V2z M3,0H0v3h3V0z"/>
<path fill="#818181" d="M2,7H1V6h1V7z M3,5H0v3h3V5z"/>
<path fill="#818181" d="M2,12H1v-1h1V12z M3,10H0v3h3l0.008-2.836L3,10z"/>
<path fill="#818181" d="M16,12H5v-1h11V12z M17,10H4v3h13V10z"/>
<path fill="#818181" d="M16,7H5V6h11V7z M16,5H4v3h13V5H16z"/>
</svg>
