<?xml version="1.0" encoding="utf-8"?>
<!-- Generator: Adobe Illustrator 16.0.0, SVG Export Plug-In . SVG Version: 6.00 Build 0)  -->
<!DOCTYPE svg PUBLIC "-//W3C//DTD SVG 1.1//EN" "http://www.w3.org/Graphics/SVG/1.1/DTD/svg11.dtd">
<svg version="1.1" id="Layer_1" xmlns="http://www.w3.org/2000/svg" xmlns:xlink="http://www.w3.org/1999/xlink" x="0px" y="0px"
	 width="16px" height="20px" viewBox="0 0 16 20" enable-background="new 0 0 16 20" xml:space="preserve">
<g>
	<path d="M15.059,5.765H4.706v-0.94h10.353V5.765z M16,3.883H3.765v2.823H16V3.883z"/>
	<path d="M1.882,5.765H0.941v-0.94h0.941V5.765z M2.824,3.883H0v2.823h2.824V3.883z"/>
	<path d="M1.882,10.472H0.941V9.53h0.941V10.472z M2.824,8.589H0v2.824h2.824V8.589z"/>
	<path d="M1.882,15.177H0.941v-0.941h0.941V15.177z M2.824,13.296H0v2.822h2.824l0.007-2.67L2.824,13.296z"/>
	<path d="M15.059,15.177H4.706v-0.941h10.353V15.177z M16,13.296H3.765v2.822H16V13.296z"/>
	<path d="M15.059,10.472H4.706V9.53h10.353V10.472z M15.059,8.589H3.765v2.824H16V8.589H15.059z"/>
</g>
</svg>
