<!-- Created with Inkscape (http://www.inkscape.org/) -->
<svg id="svg2985" xmlns:rdf="http://www.w3.org/1999/02/22-rdf-syntax-ns#" xmlns="http://www.w3.org/2000/svg" viewBox="0 0 48 48" version="1.1" xmlns:cc="http://creativecommons.org/ns#" xmlns:dc="http://purl.org/dc/elements/1.1/">
	<metadata id="metadata2990">
		<rdf:RDF>
			<cc:Work rdf:about="">
				<dc:format>image/svg+xml</dc:format>
				<dc:type rdf:resource="http://purl.org/dc/dcmitype/StillImage"/>
				<dc:title/>
			</cc:Work>
		</rdf:RDF>
	</metadata>
	<g id="layer1">
		<g id="g3410" fill="#666">
			<path id="path3412" d="M47.7,44h-47.4c-0.2,0-0.3-0.1-0.3-0.3v-9.1c0-0.2,0.1-0.3,0.3-0.3h47.4c0.2,0,0.3,0.1,0.3,0.3v9.1c0,0.2-0.1,0.3-0.3,0.3z"/>
			<path id="path3414" d="M47.7,28.9h-47.4c-0.2,0-0.3-0.1-0.3-0.3v-9.1c0-0.2,0.1-0.3,0.3-0.3h47.4c0.2,0,0.3,0.1,0.3,0.3v9.1c0,0.1-0.1,0.3-0.3,0.3z"/>
			<path id="path3416" d="M47.7,13.8h-47.4c-0.2,0-0.3-0.1-0.3-0.3v-9.2c0-0.2,0.1-0.3,0.3-0.3h47.4c0.2,0,0.3,0.1,0.3,0.3v9.1c0,0.2-0.1,0.4-0.3,0.4z"/>
		</g>
	</g>
</svg>
