<!-- Created with Inkscape (http://www.inkscape.org/) -->
<svg id="svg2985" xmlns:rdf="http://www.w3.org/1999/02/22-rdf-syntax-ns#" xmlns="http://www.w3.org/2000/svg" viewBox="0 0 48 48" version="1.1" xmlns:cc="http://creativecommons.org/ns#" xmlns:dc="http://purl.org/dc/elements/1.1/">
	<metadata id="metadata2990">
		<rdf:RDF>
			<cc:Work rdf:about="">
				<dc:format>image/svg+xml</dc:format>
				<dc:type rdf:resource="http://purl.org/dc/dcmitype/StillImage"/>
				<dc:title/>
			</cc:Work>
		</rdf:RDF>
	</metadata>
	<g id="layer1">
		<g id="g4084" fill="#808080" transform="matrix(1.012081,0,0,1,-1.4538357,-1)">
			<path id="path4086" d="m46,9.7v2.8h-30.6v-2.8h30.6m2.8-2.8h-36.1v8.3h36.1v-8.3z"/>
			<path id="path4088" d="m7,9.7v2.8h-2.8v-2.8h2.8m2.8-2.8h-8.3v8.3h8.3v-8.3z"/>
			<path id="path4090" d="m7,23.6v2.8h-2.8v-2.8h2.8m2.8-2.8h-8.3v8.3h8.3v-8.3z"/>
			<path id="path4092" d="m7,37.5v2.8h-2.8v-2.8h2.8m2.8-2.7h-8.3v8.3h8.3v-8.3z"/>
			<path id="path4094" d="m46,37.5v2.8h-30.6v-2.8h30.6m2.8-2.7h-36.1v8.3h36.1v-8.3z"/>
			<path id="path4096" d="m46,23.6v2.8h-30.6v-2.8h30.6m0-2.8h-33.3v8.3h36.1v-8.3h-2.8z"/>
		</g>
	</g>
</svg>
