<?xml version="1.0" encoding="utf-8"?>
<!-- Generator: Adobe Illustrator 16.0.0, SVG Export Plug-In . SVG Version: 6.00 Build 0)  -->
<!DOCTYPE svg PUBLIC "-//W3C//DTD SVG 1.1//EN" "http://www.w3.org/Graphics/SVG/1.1/DTD/svg11.dtd">
<svg version="1.1" id="Layer_1" xmlns="http://www.w3.org/2000/svg" xmlns:xlink="http://www.w3.org/1999/xlink" x="0px" y="0px"
	 width="25px" height="25px" viewBox="0 0 25 25" enable-background="new 0 0 25 25" xml:space="preserve">
<g>
	<path fill="#CC1B8B" d="M22.331,20.982H2.668C1.197,20.982,0,19.805,0,18.357V6.642c0-1.447,1.197-2.625,2.669-2.625h19.663
		c1.471,0,2.668,1.177,2.668,2.625v11.715C24.999,19.805,23.802,20.982,22.331,20.982z M2.668,4.911
		c-0.979,0-1.776,0.777-1.776,1.731v11.715c0,0.955,0.797,1.732,1.776,1.732h19.663c0.979,0,1.775-0.777,1.775-1.732V6.642
		c0-0.955-0.797-1.731-1.775-1.731H2.668z"/>
	<path fill="#CC1B8B" d="M12.499,14.877c-0.1,0-0.199-0.034-0.281-0.101L0.809,5.454c-0.191-0.156-0.22-0.437-0.063-0.628
		s0.438-0.219,0.628-0.063l11.125,9.091l11.127-9.091c0.191-0.157,0.471-0.127,0.629,0.063c0.154,0.191,0.127,0.472-0.064,0.628
		l-11.408,9.323C12.7,14.843,12.599,14.877,12.499,14.877z"/>
</g>
</svg>
