<?xml version="1.0" encoding="utf-8"?>
<!-- Generator: Adobe Illustrator 16.0.0, SVG Export Plug-In . SVG Version: 6.00 Build 0)  -->
<!DOCTYPE svg PUBLIC "-//W3C//DTD SVG 1.1//EN" "http://www.w3.org/Graphics/SVG/1.1/DTD/svg11.dtd">
<svg version="1.1" id="Layer_1" xmlns="http://www.w3.org/2000/svg" xmlns:xlink="http://www.w3.org/1999/xlink" x="0px" y="0px"
	 width="36.842px" height="25px" viewBox="0 0 36.842 25" enable-background="new 0 0 36.842 25" xml:space="preserve">
<path fill="#CC1B8B" d="M32.909,25H3.933C1.764,25,0,23.265,0,21.132V3.867C0,1.735,1.764,0,3.933,0h28.977
	c2.169,0,3.933,1.735,3.933,3.867v17.265C36.842,23.265,35.078,25,32.909,25z M3.933,1.316c-1.443,0-2.617,1.145-2.617,2.551v17.265
	c0,1.407,1.174,2.553,2.617,2.553h28.977c1.442,0,2.617-1.146,2.617-2.553V3.867c0-1.407-1.175-2.551-2.617-2.551H3.933z"/>
<path fill="#CC1B8B" d="M18.421,16.003c-0.147,0-0.295-0.05-0.417-0.148L1.192,2.116C0.911,1.886,0.869,1.472,1.099,1.19
	c0.23-0.281,0.645-0.323,0.926-0.093l16.396,13.398L34.817,1.097c0.281-0.231,0.694-0.188,0.926,0.093
	c0.229,0.281,0.188,0.696-0.094,0.926L18.837,15.854C18.716,15.953,18.568,16.003,18.421,16.003z"/>
</svg>
