<?xml version="1.0" encoding="UTF-8" standalone="no"?>
<!-- Created with Inkscape (http://www.inkscape.org/) -->

<svg
   xmlns:dc="http://purl.org/dc/elements/1.1/"
   xmlns:cc="http://creativecommons.org/ns#"
   xmlns:rdf="http://www.w3.org/1999/02/22-rdf-syntax-ns#"
   xmlns:svg="http://www.w3.org/2000/svg"
   xmlns="http://www.w3.org/2000/svg"
   xmlns:sodipodi="http://sodipodi.sourceforge.net/DTD/sodipodi-0.dtd"
   xmlns:inkscape="http://www.inkscape.org/namespaces/inkscape"
   id="svg2985"
   viewBox="0 0 48 48"
   version="1.1"
   inkscape:version="0.48.5 r10040"
   width="100%"
   height="100%"
   sodipodi:docname="mail-filled.svg">
  <defs
     id="defs11" />
  <sodipodi:namedview
     pagecolor="#ffffff"
     bordercolor="#666666"
     borderopacity="1"
     objecttolerance="10"
     gridtolerance="10"
     guidetolerance="10"
     inkscape:pageopacity="0"
     inkscape:pageshadow="2"
     inkscape:window-width="1054"
     inkscape:window-height="1063"
     id="namedview9"
     showgrid="false"
     inkscape:zoom="9.8333333"
     inkscape:cx="45.743135"
     inkscape:cy="40.279037"
     inkscape:window-x="0"
     inkscape:window-y="1095"
     inkscape:window-maximized="0"
     inkscape:current-layer="svg2985" />
  <metadata
     id="metadata2990">
    <rdf:RDF>
      <cc:Work
         rdf:about="">
        <dc:format>image/svg+xml</dc:format>
        <dc:type
           rdf:resource="http://purl.org/dc/dcmitype/StillImage" />
        <dc:title />
      </cc:Work>
    </rdf:RDF>
  </metadata>
  <path
     style="fill:#818181"
     d="M 4.4375,8.25 C 3.5725238,8.25 2.77197,8.5012406 2.09375,8.90625 L 24,27.8125 45.90625,8.90625 C 45.225965,8.5138629 44.431643,8.25 43.5625,8.25 z m -3.75,2.03125 C 0.25933444,10.94047 0,11.702302 0,12.53125 l 0,22.9375 C 0,37.811283 1.9542351,39.75 4.4375,39.75 l 39.125,0 C 46.045765,39.75 48,37.811283 48,35.46875 L 48,12.4375 c 0,-0.813846 -0.242416,-1.55211 -0.65625,-2.1875 -0.05195,0.08202 -0.115345,0.155976 -0.1875,0.21875 L 24.59375,29.875 c -0.333958,0.281368 -0.853542,0.281368 -1.1875,0 C 15.984606,23.193438 7.991773,17.05601 0.6875,10.28125 z"
     id="path4927"
     inkscape:connector-curvature="0"
     sodipodi:nodetypes="scccsscssssssccccc" />
</svg>
