<?xml version="1.0" encoding="utf-8"?>
<!-- Generator: Adobe Illustrator 16.0.0, SVG Export Plug-In . SVG Version: 6.00 Build 0)  -->
<!DOCTYPE svg PUBLIC "-//W3C//DTD SVG 1.1//EN" "http://www.w3.org/Graphics/SVG/1.1/DTD/svg11.dtd">
<svg version="1.1" id="Layer_1" xmlns="http://www.w3.org/2000/svg" xmlns:xlink="http://www.w3.org/1999/xlink" x="0px" y="0px"
	 width="25px" height="25px" viewBox="0 0 25 25" enable-background="new 0 0 25 25" xml:space="preserve">
<g>
	<path fill="#19A9E1" d="M24.555,18.357c0,1.203-0.996,2.178-2.224,2.178H2.668c-1.228,0-2.222-0.975-2.222-2.178V6.642
		c0-1.203,0.995-2.178,2.222-2.178h19.663c1.228,0,2.224,0.975,2.224,2.178V18.357z"/>
	<path fill="#FFFFFF" d="M22.331,20.982H2.668C1.197,20.982,0,19.805,0,18.357V6.642c0-1.448,1.197-2.625,2.668-2.625h19.663
		C23.803,4.017,25,5.193,25,6.642v11.715C25,19.805,23.803,20.982,22.331,20.982z M2.668,4.91c-0.979,0-1.776,0.776-1.776,1.731
		v11.716c0,0.955,0.797,1.731,1.776,1.731h19.663c0.979,0,1.776-0.776,1.776-1.731V6.642c0-0.955-0.797-1.731-1.776-1.731
		L2.668,4.91L2.668,4.91z"/>
	<polyline fill="#19A9E1" points="23.908,5.107 12.499,14.43 1.091,5.107 	"/>
	<path fill="#FFFFFF" d="M12.499,14.877c-0.1,0-0.199-0.035-0.281-0.102L0.809,5.453c-0.191-0.155-0.22-0.437-0.064-0.628
		c0.157-0.191,0.438-0.22,0.628-0.063l11.125,9.091l11.126-9.091c0.19-0.157,0.474-0.128,0.629,0.063
		c0.156,0.19,0.127,0.473-0.063,0.628l-11.409,9.322C12.7,14.842,12.601,14.877,12.499,14.877z"/>
</g>
</svg>
