<!-- Created with Inkscape (http://www.inkscape.org/) -->
<svg id="svg2985" xmlns:rdf="http://www.w3.org/1999/02/22-rdf-syntax-ns#" xmlns="http://www.w3.org/2000/svg" viewBox="0 0 48 48" version="1.1" xmlns:cc="http://creativecommons.org/ns#" xmlns:dc="http://purl.org/dc/elements/1.1/">
	<metadata id="metadata2990">
		<rdf:RDF>
			<cc:Work rdf:about="">
				<dc:format>image/svg+xml</dc:format>
				<dc:type rdf:resource="http://purl.org/dc/dcmitype/StillImage"/>
				<dc:title/>
			</cc:Work>
		</rdf:RDF>
	</metadata>
	<g id="layer1">
		<g id="g3076">
			<path id="path3078" fill="#ec265c" d="M24,0.5c-10.8,0-19.5,8.9-19.5,19.9,0,16.2,19.5,27,19.5,27s19.5-10.9,19.5-27c0-11-8.7-19.9-19.5-19.9z"/>
			<path id="path3080" fill="#FFF" d="M24,48,23.8,47.9c-0.2-0.1-19.9-11.2-19.9-27.5,0-11.2,9-20.4,20.1-20.4s20.1,9.2,20.1,20.4c0,16.2-19.6,27.3-19.8,27.5l-0.3,0.1zm0.2-46.9c-10.5,0-19,8.7-19,19.4,0,14.8,16.8,25.1,19,26.4,2.3-1.3,19-11.8,19-26.4,0-10.7-8.5-19.4-19-19.4z"/>
		</g>
	</g>
</svg>
