<!-- Created with Inkscape (http://www.inkscape.org/) -->
<svg id="svg2985" xmlns:rdf="http://www.w3.org/1999/02/22-rdf-syntax-ns#" xmlns="http://www.w3.org/2000/svg" viewBox="0 0 48 48" version="1.1" xmlns:cc="http://creativecommons.org/ns#" xmlns:dc="http://purl.org/dc/elements/1.1/">
	<metadata id="metadata2990">
		<rdf:RDF>
			<cc:Work rdf:about="">
				<dc:format>image/svg+xml</dc:format>
				<dc:type rdf:resource="http://purl.org/dc/dcmitype/StillImage"/>
				<dc:title/>
			</cc:Work>
		</rdf:RDF>
	</metadata>
	<g id="layer1">
		<g id="g3046" stroke-linejoin="round" transform="matrix(0.96745393,0,0,1,-0.16480367,-1.1882824)" stroke="#808080" stroke-linecap="round" stroke-miterlimit="10" stroke-width="2" fill="none">
			<path id="path3048" d="m25.7,6.2c-1.8,0-3.6,0.2-5.2,0.6-1.8-1.4-5.3-2.9-9.8-2.1,1.8,0.5,3,2.8,3.7,4.5-4.6,2.7-7.7,6.8-8.3,11.7h-4.7v8.7h6.2c3,6,10,10.1,18.2,10.1,11,0,19.9-7.5,19.9-16.7s-9-16.8-20-16.8z"/>
			<ellipse id="ellipse3050" d="m 15.9,20.299999 c 0,0.883656 -0.716344,1.6 -1.6,1.6 -0.883655,0 -1.6,-0.716344 -1.6,-1.6 0,-0.883655 0.716345,-1.6 1.6,-1.6 0.883656,0 1.6,0.716345 1.6,1.6 z" rx="1.6" ry="1.6" cy="20.3" cx="14.3"/>
			<path id="path3052" d="m24.1,13.4s7.5-0.4,11.5,3.9"/>
			<line id="line3054" y2="45.9" y1="38.1" x2="17.2" x1="17.2"/>
			<line id="line3056" y2="45.9" y1="38.1" x2="34.2" x1="34.2"/>
			<path id="path3058" d="m45.6,23.7s2.9-0.7,3.1-4.1"/>
		</g>
	</g>
</svg>
