<?xml version="1.0" encoding="utf-8"?>
<!-- Generator: Adobe Illustrator 16.0.0, SVG Export Plug-In . SVG Version: 6.00 Build 0)  -->
<!DOCTYPE svg PUBLIC "-//W3C//DTD SVG 1.1//EN" "http://www.w3.org/Graphics/SVG/1.1/DTD/svg11.dtd">
<svg version="1.1" id="Layer_1" xmlns="http://www.w3.org/2000/svg" xmlns:xlink="http://www.w3.org/1999/xlink" x="0px" y="0px"
	 width="14.544px" height="15px" viewBox="0 0 14.544 15" enable-background="new 0 0 14.544 15" xml:space="preserve">
<path d="M7.481,12.133c-2.338,0-4.463-1.128-5.508-2.897H0.5c-0.276,0-0.5-0.224-0.5-0.5V6.253c0-0.276,0.224-0.5,0.5-0.5h0.94
	c0.291-1.178,1.049-2.241,2.145-3.005C3.368,2.354,3.161,2.167,3.022,2.124C2.803,2.056,2.658,1.848,2.67,1.619
	c0.013-0.229,0.179-0.42,0.404-0.464C3.348,1.102,3.626,1.075,3.9,1.075c1.042,0,1.806,0.385,2.182,0.626
	C6.548,1.607,7.018,1.56,7.481,1.56c3.404,0,6.174,2.371,6.174,5.286C13.655,9.761,10.886,12.133,7.481,12.133z M1,8.235h1.269
	c0.188,0,0.36,0.105,0.446,0.273c0.812,1.594,2.683,2.624,4.767,2.624c2.853,0,5.174-1.923,5.174-4.287
	c0-2.363-2.321-4.286-5.174-4.286c-0.46,0-0.928,0.055-1.393,0.163C5.941,2.756,5.79,2.724,5.671,2.633
	c-0.141-0.108-0.599-0.419-1.3-0.523C4.482,2.292,4.588,2.5,4.687,2.733c0.098,0.23,0.011,0.498-0.205,0.626
	C3.298,4.061,2.52,5.142,2.345,6.326C2.309,6.571,2.099,6.753,1.851,6.753H1V8.235z"/>
<circle cx="4.212" cy="6.09" r="0.941"/>
<path d="M10.316,5.708c-0.135,0-0.27-0.055-0.368-0.162C9.165,4.692,7.599,4.574,7.06,4.603C6.798,4.63,6.549,4.405,6.535,4.129
	C6.521,3.853,6.733,3.618,7.009,3.604c0.1-0.001,2.418-0.107,3.676,1.266c0.187,0.204,0.173,0.52-0.03,0.707
	C10.559,5.664,10.438,5.708,10.316,5.708z"/>
<path d="M5.058,13.926c-0.276,0-0.5-0.224-0.5-0.5v-2.251c0-0.276,0.224-0.5,0.5-0.5s0.5,0.224,0.5,0.5v2.251
	C5.558,13.702,5.334,13.926,5.058,13.926z"/>
<path d="M9.906,13.926c-0.276,0-0.5-0.224-0.5-0.5v-2.251c0-0.276,0.224-0.5,0.5-0.5s0.5,0.224,0.5,0.5v2.251
	C10.406,13.702,10.183,13.926,9.906,13.926z"/>
<path d="M13.154,7.553c-0.222,0-0.424-0.148-0.483-0.372c-0.07-0.265,0.086-0.537,0.35-0.609c0.084-0.025,0.493-0.176,0.524-0.707
	c0.016-0.275,0.248-0.479,0.528-0.469c0.276,0.016,0.486,0.253,0.47,0.529c-0.061,1.025-0.821,1.496-1.261,1.612
	C13.239,7.548,13.196,7.553,13.154,7.553z"/>
</svg>
