<!-- Created with Inkscape (http://www.inkscape.org/) -->
<svg id="svg2985" xmlns:rdf="http://www.w3.org/1999/02/22-rdf-syntax-ns#" xmlns="http://www.w3.org/2000/svg" viewBox="0 0 48 48" version="1.1" xmlns:cc="http://creativecommons.org/ns#" xmlns:dc="http://purl.org/dc/elements/1.1/">
	<metadata id="metadata2990">
		<rdf:RDF>
			<cc:Work rdf:about="">
				<dc:format>image/svg+xml</dc:format>
				<dc:type rdf:resource="http://purl.org/dc/dcmitype/StillImage"/>
				<dc:title/>
			</cc:Work>
		</rdf:RDF>
	</metadata>
	<g id="layer1">
		<g id="g3356" transform="matrix(-1.0368465,0,0,1.015528,50.031472,-1.673913)">
			<path id="path3358" fill="#808080" d="m46.3,8.6v32.9h-28c-1.4,0-2.8-0.6-3.6-1.7l-10.3-12.8c-0.9-1.1-0.9-2.8,0-4l10.2-12.7c0.8-1,2.2-1.7,3.6-1.7h28.1m2-2h-30c-2,0-3.9,0.9-5.2,2.4l-10.2,12.7c-1.5,2-1.5,4.7,0,6.5l10.2,12.8c1.2,1.5,3.2,2.4,5.2,2.4h30v-36.8z"/>
		</g>
	</g>
</svg>
