<!-- Created with Inkscape (http://www.inkscape.org/) -->
<svg id="svg2985" xmlns:rdf="http://www.w3.org/1999/02/22-rdf-syntax-ns#" xmlns="http://www.w3.org/2000/svg" viewBox="0 0 48 48" version="1.1" xmlns:cc="http://creativecommons.org/ns#" xmlns:dc="http://purl.org/dc/elements/1.1/">
	<metadata id="metadata2990">
		<rdf:RDF>
			<cc:Work rdf:about="">
				<dc:format>image/svg+xml</dc:format>
				<dc:type rdf:resource="http://purl.org/dc/dcmitype/StillImage"/>
				<dc:title/>
			</cc:Work>
		</rdf:RDF>
	</metadata>
	<g id="layer1">
		<path id="path3925" fill="#666" d="m47.775,23.038c-0.1-0.3-0.3-0.5-0.5-0.7l-11.9-12.1c-0.8-0.9-2.3-0.9-3.2,0s-0.9,2.4,0,3.3l8.1,8.4h-32.1c-2,0-3.7-1.8-3.7-3.9s1.6-3.8,3.7-3.8c1.2,0,2.2-1,2.2-2.3,0-1.2-1-2.3-2.2-2.3-4.5,0-8.1,4.1-8.1,8.7s3.7,8.6,8.1,8.6h32.2l-8.1,7.9c-0.9,0.9-0.9,2.1,0,3,0.4,0.4,1,0.6,1.6,0.6s1.2-0.3,1.6-0.7l11.8-12.1c0.2-0.2,0.4-0.5,0.5-0.7,0.2-0.7,0.2-1.3,0-1.9z"/>
	</g>
</svg>
