<?xml version="1.0" encoding="UTF-8" standalone="no"?>
<!-- Generator: Adobe Illustrator 18.0.0, SVG Export Plug-In . SVG Version: 6.00 Build 0)  -->

<svg
   xmlns:dc="http://purl.org/dc/elements/1.1/"
   xmlns:cc="http://creativecommons.org/ns#"
   xmlns:rdf="http://www.w3.org/1999/02/22-rdf-syntax-ns#"
   xmlns:svg="http://www.w3.org/2000/svg"
   xmlns="http://www.w3.org/2000/svg"
   xmlns:sodipodi="http://sodipodi.sourceforge.net/DTD/sodipodi-0.dtd"
   xmlns:inkscape="http://www.inkscape.org/namespaces/inkscape"
   version="1.1"
   x="0px"
   y="0px"
   viewBox="0 0 20 20"
   enable-background="new 0 0 20 20"
   xml:space="preserve"
   id="svg2"
   inkscape:version="0.48.3.1 r9886"
   width="100%"
   height="100%"
   sodipodi:docname="speachbubble.svg"><metadata
   id="metadata13"><rdf:RDF><cc:Work
       rdf:about=""><dc:format>image/svg+xml</dc:format><dc:type
         rdf:resource="http://purl.org/dc/dcmitype/StillImage" /><dc:title></dc:title></cc:Work></rdf:RDF></metadata><defs
   id="defs11">
	
</defs><sodipodi:namedview
   pagecolor="#ffffff"
   bordercolor="#666666"
   borderopacity="1"
   objecttolerance="10"
   gridtolerance="10"
   guidetolerance="10"
   inkscape:pageopacity="0"
   inkscape:pageshadow="2"
   inkscape:window-width="1440"
   inkscape:window-height="880"
   id="namedview9"
   showgrid="false"
   inkscape:zoom="11.8"
   inkscape:cx="-4.4491526"
   inkscape:cy="10"
   inkscape:window-x="0"
   inkscape:window-y="20"
   inkscape:window-maximized="1"
   inkscape:current-layer="svg2" />
<path
   style="font-size:medium;font-style:normal;font-variant:normal;font-weight:normal;font-stretch:normal;text-indent:0;text-align:start;text-decoration:none;line-height:normal;letter-spacing:normal;word-spacing:normal;text-transform:none;direction:ltr;block-progression:tb;writing-mode:lr-tb;text-anchor:start;baseline-shift:baseline;color:#000000;fill:#000000;fill-opacity:1;fill-rule:nonzero;stroke:none;stroke-width:1;marker:none;visibility:visible;display:inline;overflow:visible;enable-background:accumulate;font-family:Sans;-inkscape-font-specification:Sans"
   d="m 10.3125,2.09375 c -2.5282313,0 -4.8181442,0.595764 -6.5,1.5625 C 2.1306442,4.622986 1,6.0030093 1,7.59375 c 0,1.4270319 0.8944947,2.597635 2.15625,3.53125 -2.651e-4,-9.51e-4 9.183e-4,0.03093 0,0.03125 0.00453,0.02142 0.024751,0.04002 0.03125,0.09375 0.016998,0.140514 0.024438,0.361589 0.03125,0.625 0.013625,0.526823 0.018628,1.242039 0,1.9375 -0.037257,1.390922 -0.125,2.75 -0.125,2.75 L 3,18.40625 4.03125,16.875 c 0,0 0.6873502,-1.073183 1.53125,-2.125 0.4219499,-0.525909 0.8904663,-1.054115 1.28125,-1.40625 0.1953919,-0.176067 0.3689048,-0.30314 0.5,-0.375 0.1310952,-0.07186 0.1965025,-0.05518 0.15625,-0.0625 l 0.03125,0 c 0.8050886,0.100636 1.719213,0.1875 2.65625,0.1875 2.528231,0 4.818144,-0.595764 6.5,-1.5625 C 18.369356,10.564514 19.5,9.1844907 19.5,7.59375 19.5,6.0091821 18.407999,4.6245213 16.75,3.65625 15.092001,2.6879787 12.840731,2.09375 10.3125,2.09375 z m 0,1 c 2.371769,0 4.470499,0.5807713 5.9375,1.4375 1.467001,0.8567287 2.25,1.9470679 2.25,3.0625 0,1.1092593 -0.819356,2.235486 -2.3125,3.09375 -1.493144,0.858264 -3.628231,1.40625 -6,1.40625 -0.8523672,0 -1.7127976,-0.08943 -2.5,-0.1875 -0.00979,-0.0012 -0.02149,0.0012 -0.03125,0 -0.3001784,-0.04409 -0.5518972,0.06178 -0.78125,0.1875 -0.2380454,0.130484 -0.4563294,0.291692 -0.6875,0.5 C 5.7251587,13.010365 5.2530501,13.575909 4.8125,14.125 4.4588548,14.565775 4.4245307,14.627073 4.15625,15 c 0.020575,-0.478745 0.046803,-0.570214 0.0625,-1.15625 0.018872,-0.704539 0.0145,-1.408073 0,-1.96875 C 4.2114999,11.594661 4.211518,11.354799 4.1875,11.15625 4.175491,11.056976 4.1508697,10.967865 4.125,10.875 4.1005737,10.787316 4.0809189,10.650836 3.875,10.5 2.6528342,9.6538852 2,8.6886218 2,7.59375 2,6.4844907 2.8193558,5.389514 4.3125,4.53125 c 1.4931442,-0.858264 3.6282313,-1.4375 6,-1.4375 z"
   id="path5"
   inkscape:connector-curvature="0" />
<g
   id="Ebene_2">
</g>
<g
   id="Ebene_3">
</g>
</svg>