<!-- Created with Inkscape (http://www.inkscape.org/) -->
<svg id="svg2985" xmlns:rdf="http://www.w3.org/1999/02/22-rdf-syntax-ns#" xmlns="http://www.w3.org/2000/svg" viewBox="0 0 48 48" version="1.1" xmlns:cc="http://creativecommons.org/ns#" xmlns:dc="http://purl.org/dc/elements/1.1/">
	<metadata id="metadata2990">
		<rdf:RDF>
			<cc:Work rdf:about="">
				<dc:format>image/svg+xml</dc:format>
				<dc:type rdf:resource="http://purl.org/dc/dcmitype/StillImage"/>
				<dc:title/>
			</cc:Work>
		</rdf:RDF>
	</metadata>
	<g id="layer1">
		<g id="g3866" fill="#808080" transform="matrix(1.0120301,0,0,1.0060024,-1.25015,-1.1500605)">
			<path id="path3868" d="m17.6,17.5c-8.8,0-16.4,5.9-16.4,13.4,0,4,1.3,7.9,4.5,10.5l-1.5,7.4,8.9-4.5h4.5c8.8,0,14.9-5.9,14.9-13.4s-6.2-13.4-14.9-13.4z"/>
			<path id="path3870" d="m47,10.2h-9c-1,0-1.5-0.8-1.5-1.5v-7.5l10.5,9z"/>
			<path id="path3872" d="M33.5,13.4v-12.2h-12.2v12.9c8.1,0,15,7.4,15,21.7h12.4v-22.4h-15.2z"/>
		</g>
	</g>
</svg>
