<?xml version="1.0" encoding="utf-8"?>
<!-- Generator: Adobe Illustrator 16.0.0, SVG Export Plug-In . SVG Version: 6.00 Build 0)  -->
<!DOCTYPE svg PUBLIC "-//W3C//DTD SVG 1.1//EN" "http://www.w3.org/Graphics/SVG/1.1/DTD/svg11.dtd">
<svg version="1.1" id="Layer_1" xmlns="http://www.w3.org/2000/svg" xmlns:xlink="http://www.w3.org/1999/xlink" x="0px" y="0px"
	 width="13.637px" height="15px" viewBox="0 0 13.637 15" enable-background="new 0 0 13.637 15" xml:space="preserve">
<path fill="#818181" d="M5,5.455c-2.682,0-5,1.794-5,4.091c0,1.218,0.388,2.421,1.364,3.182L0.909,15l2.728-1.363H5
	c2.682,0,4.546-1.795,4.546-4.091C9.546,7.249,7.682,5.455,5,5.455"/>
<path fill="#818181" d="M13.637,2.727h-2.728c-0.298,0-0.454-0.241-0.454-0.454V0L13.637,2.727z"/>
<path fill="#818181" d="M9.546,3.636V0H5.455v4.432c3.608,0,5.27,1.989,5.27,6.022h2.912V3.636H9.546z"/>
</svg>
