<?xml version="1.0" encoding="utf-8"?>
<!-- Generator: Adobe Illustrator 16.0.0, SVG Export Plug-In . SVG Version: 6.00 Build 0)  -->
<!DOCTYPE svg PUBLIC "-//W3C//DTD SVG 1.1//EN" "http://www.w3.org/Graphics/SVG/1.1/DTD/svg11.dtd">
<svg version="1.1" id="Layer_1" xmlns="http://www.w3.org/2000/svg" xmlns:xlink="http://www.w3.org/1999/xlink" x="0px" y="0px"
	 width="16.685px" height="15px" viewBox="0 0 16.685 15" enable-background="new 0 0 16.685 15" xml:space="preserve">
<path fill="none" stroke="#000000" stroke-linejoin="round" stroke-miterlimit="10" d="M6.213,0.749
	C3.058,0.749,0.5,2.947,0.5,5.658c0,1.438,0.725,2.729,1.873,3.626L1.738,11.91l3.331-1.443c0.37,0.065,0.752,0.1,1.144,0.1
	c3.155,0,5.714-2.198,5.714-4.908C11.927,2.947,9.368,0.749,6.213,0.749z"/>
<path fill="none" stroke="#000000" stroke-linecap="round" stroke-linejoin="round" stroke-miterlimit="10" d="M13.701,5.133
	c1.483,0.736,2.483,2.114,2.483,3.691c0,1.25-0.629,2.369-1.625,3.147l0.551,2.279l-2.891-1.252
	c-0.32,0.056-0.652,0.086-0.992,0.086c-1.198,0-2.296-0.365-3.153-0.974"/>
</svg>
