<!-- Created with Inkscape (http://www.inkscape.org/) -->
<svg id="svg2985" xmlns:rdf="http://www.w3.org/1999/02/22-rdf-syntax-ns#" xmlns="http://www.w3.org/2000/svg" viewBox="0 0 48 48" version="1.1" xmlns:cc="http://creativecommons.org/ns#" xmlns:dc="http://purl.org/dc/elements/1.1/">
	<metadata id="metadata2990">
		<rdf:RDF>
			<cc:Work rdf:about="">
				<dc:format>image/svg+xml</dc:format>
				<dc:type rdf:resource="http://purl.org/dc/dcmitype/StillImage"/>
				<dc:title/>
			</cc:Work>
		</rdf:RDF>
	</metadata>
	<g id="layer1">
		<g id="g3634" transform="translate(-1.1928576,-0.99999986)">
			<path id="path3636" fill="#808080" d="m25,3.1c12.3,0,21.9,8.3,21.9,18.8,0,10.6-9.8,19.1-21.9,19.1-1.7,0-2.9,0-4.4-0.3h-0.4c-0.3,0-0.5,0.1-0.8,0.2l-10.3,4.5,1.8-7.3c0.2-0.8-0.1-1.6-0.7-2-4.5-3.5-7.1-8.6-7.1-13.8,0-10.6,9.8-19.2,21.9-19.2m0-2c-13.3,0-23.9,9.5-23.9,21.1,0,6.1,3.1,11.6,7.8,15.3l-2.6,11.4,14-6.1c1.7,0.3,3.1,0.3,4.8,0.3,13.3,0,23.9-9.5,23.9-21.1s-10.7-20.9-24-20.9z"/>
		</g>
	</g>
</svg>
