<!-- Created with Inkscape (http://www.inkscape.org/) -->
<svg id="svg2985" xmlns:rdf="http://www.w3.org/1999/02/22-rdf-syntax-ns#" xmlns="http://www.w3.org/2000/svg" viewBox="0 0 48 48" version="1.1" xmlns:cc="http://creativecommons.org/ns#" xmlns:dc="http://purl.org/dc/elements/1.1/">
	<metadata id="metadata2990">
		<rdf:RDF>
			<cc:Work rdf:about="">
				<dc:format>image/svg+xml</dc:format>
				<dc:type rdf:resource="http://purl.org/dc/dcmitype/StillImage"/>
				<dc:title/>
			</cc:Work>
		</rdf:RDF>
	</metadata>
	<g id="layer1">
		<g id="g3466" transform="translate(-1.2142853,-1)">
			<g id="g3468">
				<path id="path3470" fill="#808080" d="m25.1,31h-0.5c-2.7,0-5-0.9-6.8-2.7-4.1-4.3-5-12.2-4.7-18.3,0.5-7.9,9-9,11.9-9h-0.5,0.5c2.9,0,11.7,1.1,11.9,9,0.2,6.1-1.1,14-5.2,18.3-1.6,1.5-3.9,2.7-6.6,2.7zm0-27.1c-4.1,0-8.8,1.4-9,6.1-0.2,7.9,1.4,13.5,3.8,16.2,1.1,1.4,2.7,1.8,4.5,1.8h0.5c1.8,0,3.4-0.7,4.5-1.8,2.5-2.7,4.7-8.3,4.5-16.2,0-4.7-4.7-6.1-8.8-6.1z"/>
			</g>
			<g id="g3472">
				<path id="path3474" fill="#808080" d="M46.1,49h-42.2v-1.6c0-11.3,10.1-13.5,19.8-13.5h0.7,0.5c3.4,0,21-1.1,21,13.5v1.6h0.2zm-39-3.2h36.1c-1.1-10.4-15.3-9-18-9h-1.4c-3.6,0-15.6-1.1-16.7,9z"/>
			</g>
		</g>
	</g>
</svg>
