<?xml version="1.0" encoding="utf-8"?>
<!-- Generator: Adobe Illustrator 16.0.0, SVG Export Plug-In . SVG Version: 6.00 Build 0)  -->
<!DOCTYPE svg PUBLIC "-//W3C//DTD SVG 1.1//EN" "http://www.w3.org/Graphics/SVG/1.1/DTD/svg11.dtd">
<svg version="1.1" id="Layer_1" xmlns="http://www.w3.org/2000/svg" xmlns:xlink="http://www.w3.org/1999/xlink" x="0px" y="0px"
	 width="13.123px" height="15px" viewBox="0 0 13.123 15" enable-background="new 0 0 13.123 15" xml:space="preserve">
<path fill="#818181" d="M6.562,9.376H6.411c-0.846,0-1.556-0.293-2.111-0.874C3.045,7.194,2.731,4.713,2.812,2.814
	c0.106-2.46,2.847-2.797,3.75-2.812L6.418,0l0.144,0.002c0.926,0.016,3.645,0.364,3.75,2.812c0.081,1.898-0.384,4.378-1.638,5.688
	C8.118,9.083,7.407,9.376,6.562,9.376 M6.562,0.939C5.326,0.959,3.81,1.371,3.75,2.814C3.646,5.241,4.176,7.019,4.976,7.854
	c0.376,0.393,0.846,0.584,1.435,0.584h0.151c0.589,0,1.059-0.191,1.435-0.585c0.801-0.835,1.482-2.614,1.378-5.04
	C9.313,1.371,7.811,0.959,6.562,0.939"/>
<path fill="#818181" d="M13.123,15H0v-0.469c0-3.549,3.174-4.22,6.185-4.22c0.15,0,0.234,0.003,0.234,0.003l0.143-0.001
	c1.051,0,6.562-0.362,6.562,4.218V15z M0.937,14.063h11.249c-0.361-3.235-4.769-2.813-5.624-2.813l-0.128,0.001l-0.249-0.002
	C5,11.249,1.273,10.91,0.937,14.063"/>
</svg>
