<?xml version="1.0" encoding="utf-8"?>
<!-- Generator: Adobe Illustrator 16.0.0, SVG Export Plug-In . SVG Version: 6.00 Build 0)  -->
<!DOCTYPE svg PUBLIC "-//W3C//DTD SVG 1.1//EN" "http://www.w3.org/Graphics/SVG/1.1/DTD/svg11.dtd">
<svg version="1.1" id="Layer_1" xmlns="http://www.w3.org/2000/svg" xmlns:xlink="http://www.w3.org/1999/xlink" x="0px" y="0px"
	 width="23.529px" height="25px" viewBox="0 0 23.529 25" enable-background="new 0 0 23.529 25" xml:space="preserve">
<path fill="#818181" d="M13.391,13.235h-0.155c-0.939,0-1.729-0.328-2.349-0.974C9.804,11.131,8.7,8.787,8.823,5.882
	c0.083-1.859,1.977-2.887,4.416-2.941V2.94l0.148,0.001c2.447,0.06,4.179,1.088,4.26,2.941c0.123,2.906-0.825,5.25-1.906,6.379
	C15.122,12.907,14.331,13.235,13.391,13.235 M13.235,4.412c-1.671,0.027-2.897,0.434-2.941,1.471
	c-0.103,2.419,0.726,4.556,1.499,5.362c0.335,0.35,0.756,0.521,1.287,0.521h0.155c0.528,0,0.95-0.171,1.287-0.521
	c0.772-0.806,1.758-2.942,1.654-5.362C16.132,4.846,14.927,4.438,13.235,4.412"/>
<path fill="#818181" d="M20.588,19.117H5.882v-0.734c0-3.829,3.756-5.148,6.965-5.148l0.253,0.004l0.135-0.003
	c3.094,0,7.353,1.315,7.353,5.147V19.117z M7.353,17.647h11.764c-0.525-2.756-4.597-2.943-5.729-2.943l-0.152,0.002l-0.237-0.003
	C11.878,14.703,7.874,14.89,7.353,17.647"/>
<path fill="#818181" d="M23.529,22.059H2.941V0h20.588V22.059z M4.412,20.588h17.647V1.471H4.412V20.588z"/>
<polygon fill="#818181" points="20.588,25 0,25 0,4.412 1.471,4.412 1.471,23.529 20.588,23.529 "/>
</svg>
