<?xml version="1.0" encoding="UTF-8" standalone="no"?>
<!-- Created with Inkscape (http://www.inkscape.org/) -->

<svg
   xmlns:dc="http://purl.org/dc/elements/1.1/"
   xmlns:cc="http://creativecommons.org/ns#"
   xmlns:rdf="http://www.w3.org/1999/02/22-rdf-syntax-ns#"
   xmlns:svg="http://www.w3.org/2000/svg"
   xmlns="http://www.w3.org/2000/svg"
   xmlns:sodipodi="http://sodipodi.sourceforge.net/DTD/sodipodi-0.dtd"
   xmlns:inkscape="http://www.inkscape.org/namespaces/inkscape"
   id="svg2985"
   viewBox="0 0 48 48"
   version="1.1"
   inkscape:version="0.48.5 r10040"
   width="100%"
   height="100%"
   sodipodi:docname="users.svg">
  <defs
     id="defs16" />
  <sodipodi:namedview
     pagecolor="#ffffff"
     bordercolor="#666666"
     borderopacity="1"
     objecttolerance="10"
     gridtolerance="10"
     guidetolerance="10"
     inkscape:pageopacity="0"
     inkscape:pageshadow="2"
     inkscape:window-width="1054"
     inkscape:window-height="1063"
     id="namedview14"
     showgrid="false"
     inkscape:zoom="4.9166667"
     inkscape:cx="24"
     inkscape:cy="24"
     inkscape:window-x="0"
     inkscape:window-y="1095"
     inkscape:window-maximized="0"
     inkscape:current-layer="svg2985" />
  <metadata
     id="metadata2990">
    <rdf:RDF>
      <cc:Work
         rdf:about="">
        <dc:format>image/svg+xml</dc:format>
        <dc:type
           rdf:resource="http://purl.org/dc/dcmitype/StillImage" />
        <dc:title />
      </cc:Work>
    </rdf:RDF>
  </metadata>
  <g
     id="g3823"
     transform="matrix(1.0179583,0,0,1.012733,-1.4489575,-1.318325)">
    <path
       id="path3825"
       d="M 28.2,26.5 H 28 c -1.9,0 -3.4,-0.6 -4.4,-1.9 -2.1,-2.1 -4.2,-6.7 -4,-12.2 0.2,-3.6 3.8,-5.5 8.4,-5.7 h 0.2 c 4.6,0.2 8,2.1 8.2,5.7 0.2,5.5 -1.5,10.1 -3.6,12.2 -1.5,1.2 -3,1.9 -4.6,1.9 z M 27.7,9.6 c -3.2,0 -5.5,0.8 -5.7,2.7 -0.2,4.7 1.5,8.7 3,10.4 0.6,0.6 1.5,1.1 2.5,1.1 h 0.2 c 1.1,0 1.9,-0.4 2.5,-1.1 1.5,-1.5 3.4,-5.7 3.2,-10.3 0,-1.9 -2.3,-2.8 -5.7,-2.8 z"
       inkscape:connector-curvature="0"
       style="fill:#808080" />
  </g>
  <g
     id="g3827"
     transform="matrix(1.0179583,0,0,1.012733,-1.4489575,-1.318325)">
    <path
       id="path3829"
       d="m 41.9,37.6 h -28 v -1.5 c 0,-7.4 7.2,-9.9 13.3,-9.9 h 0.6 c 5.9,0 14.1,2.5 14.1,9.9 v 1.5 z M 16.6,34.9 H 39.1 C 38,29.6 30.3,29.2 28.1,29.2 h -0.6 c -2.3,0 -9.9,0.4 -10.9,5.7 z"
       inkscape:connector-curvature="0"
       style="fill:#808080" />
  </g>
  <g
     id="g3831"
     transform="matrix(1.0179583,0,0,1.012733,-1.4489575,-1.318325)">
    <path
       id="path3833"
       d="M 47.5,43.3 H 8.1 V 1.2 H 47.5 V 43.3 z M 10.9,40.4 H 44.6 V 3.9 H 10.9 v 36.5 z"
       inkscape:connector-curvature="0"
       style="fill:#808080" />
  </g>
  <g
     id="g3835"
     transform="matrix(1.0179583,0,0,1.012733,-1.4489575,-1.318325)">
    <polygon
       id="polygon3837"
       points="5.4,46.1 41.9,46.1 41.9,48.8 2.5,48.8 2.5,9.6 5.4,9.6 "
       style="fill:#808080" />
  </g>
</svg>
