<?xml version="1.0" encoding="utf-8"?>
<!-- Generator: Adobe Illustrator 19.1.0, SVG Export Plug-In . SVG Version: 6.00 Build 0)  -->
<svg version="1.1" id="Ebene_1" xmlns="http://www.w3.org/2000/svg" xmlns:xlink="http://www.w3.org/1999/xlink" x="0px" y="0px"
	 viewBox="0 0 180 180" style="enable-background:new 0 0 180 180;" xml:space="preserve">
<path d="M84.4,38.3v102.6c0,1.6-0.6,3-1.8,4.2c-1.2,1.2-2.6,1.8-4.2,1.8c-1.6,0-3-0.6-4.2-1.8l-31.4-31.4H18c-1.6,0-3.1-0.6-4.2-1.8
	c-1.2-1.2-1.8-2.6-1.8-4.2V71.5c0-1.6,0.6-3,1.8-4.2c1.2-1.2,2.6-1.8,4.2-1.8h24.7l31.4-31.4c1.2-1.2,2.6-1.8,4.2-1.8
	c1.6,0,3,0.6,4.2,1.8C83.8,35.3,84.4,36.7,84.4,38.3z M116.6,76.3c2.7,4.1,4,8.6,4,13.4c0,4.8-1.3,9.2-4,13.3
	c-2.7,4.1-6.2,7.1-10.6,8.8c-0.6,0.3-1.4,0.5-2.4,0.5c-1.6,0-3-0.6-4.2-1.7c-1.2-1.2-1.8-2.6-1.8-4.3c0-1.3,0.4-2.4,1.1-3.3
	c0.8-0.9,1.7-1.7,2.7-2.4c1.1-0.7,2.1-1.4,3.2-2.2c1.1-0.8,2-1.9,2.7-3.3c0.8-1.4,1.1-3.2,1.1-5.4c0-2.1-0.4-3.9-1.1-5.4
	c-0.8-1.4-1.7-2.6-2.7-3.3c-1.1-0.8-2.1-1.5-3.2-2.2c-1.1-0.7-2-1.4-2.7-2.4c-0.8-0.9-1.1-2-1.1-3.3c0-1.7,0.6-3.1,1.8-4.3
	c1.2-1.2,2.6-1.7,4.2-1.7c0.9,0,1.7,0.2,2.4,0.5C110.4,69.2,114,72.1,116.6,76.3z M136.8,63c5.3,8.1,8,17,8,26.6
	c0,9.6-2.7,18.5-8,26.6c-5.3,8.1-12.4,14.1-21.2,17.8c-0.8,0.3-1.6,0.5-2.4,0.5c-1.7,0-3.1-0.6-4.3-1.8c-1.2-1.2-1.8-2.6-1.8-4.2
	c0-2.5,1.2-4.3,3.7-5.6c3.5-1.8,5.9-3.2,7.2-4.1c4.7-3.4,8.3-7.7,10.9-12.8c2.6-5.1,3.9-10.6,3.9-16.4c0-5.8-1.3-11.2-3.9-16.4
	c-2.6-5.1-6.2-9.4-10.9-12.8c-1.3-0.9-3.6-2.3-7.2-4.1c-2.5-1.3-3.7-3.1-3.7-5.6c0-1.6,0.6-3,1.8-4.2c1.2-1.2,2.6-1.8,4.2-1.8
	c0.8,0,1.6,0.2,2.5,0.5C124.4,48.9,131.4,54.9,136.8,63z M157,49.8c8,12.1,12,25.4,12,39.8c0,14.5-4,27.7-12,39.8
	c-8,12.1-18.6,21-31.9,26.7c-0.8,0.3-1.6,0.5-2.5,0.5c-1.6,0-3-0.6-4.2-1.8c-1.2-1.2-1.8-2.6-1.8-4.2c0-2.3,1.2-4.1,3.7-5.6
	c0.4-0.2,1.1-0.6,2.1-1c1-0.4,1.7-0.7,2.1-1c2.9-1.6,5.5-3.2,7.7-4.8c7.7-5.7,13.8-12.9,18.1-21.4c4.3-8.6,6.5-17.6,6.5-27.3
	c0-9.6-2.2-18.7-6.5-27.3C146,53.8,140,46.7,132.2,41c-2.3-1.6-4.8-3.2-7.7-4.8c-0.4-0.3-1.1-0.6-2.1-1c-1-0.4-1.7-0.7-2.1-1
	c-2.5-1.4-3.7-3.3-3.7-5.6c0-1.6,0.6-3,1.8-4.2c1.2-1.2,2.6-1.8,4.2-1.8c0.8,0,1.6,0.2,2.5,0.5C138.3,28.8,149,37.7,157,49.8z"/>
</svg>
