<?xml version="1.0" encoding="utf-8"?>
<!-- Generator: Adobe Illustrator 16.0.0, SVG Export Plug-In . SVG Version: 6.00 Build 0)  -->
<!DOCTYPE svg PUBLIC "-//W3C//DTD SVG 1.1//EN" "http://www.w3.org/Graphics/SVG/1.1/DTD/svg11.dtd">
<svg version="1.1" id="Layer_1" xmlns="http://www.w3.org/2000/svg" xmlns:xlink="http://www.w3.org/1999/xlink" x="0px" y="0px"
	 width="16px" height="20px" viewBox="0 0 16 20" enable-background="new 0 0 16 20" xml:space="preserve">
<g>
	<path d="M3.425,15.717c-0.292,0-0.585-0.109-0.808-0.336c-0.447-0.447-0.447-1.168,0-1.615l9.147-9.147
		c0.445-0.448,1.169-0.448,1.616,0c0.448,0.446,0.448,1.17,0,1.617l-9.146,9.146C4.01,15.607,3.717,15.717,3.425,15.717z"/>
	<path d="M12.573,15.717c-0.293,0-0.587-0.109-0.809-0.336L2.617,6.236c-0.447-0.447-0.447-1.171,0-1.617
		c0.446-0.447,1.17-0.447,1.617,0l9.146,9.146c0.448,0.447,0.448,1.168,0,1.615C13.157,15.607,12.865,15.717,12.573,15.717z"/>
</g>
</svg>
