<?xml version="1.0" encoding="utf-8"?>
<!-- Generator: Adobe Illustrator 16.0.0, SVG Export Plug-In . SVG Version: 6.00 Build 0)  -->
<!DOCTYPE svg PUBLIC "-//W3C//DTD SVG 1.1//EN" "http://www.w3.org/Graphics/SVG/1.1/DTD/svg11.dtd">
<svg version="1.1" id="Layer_1" xmlns="http://www.w3.org/2000/svg" xmlns:xlink="http://www.w3.org/1999/xlink" x="0px" y="0px"
	 width="16px" height="20px" viewBox="0 0 16 20" enable-background="new 0 0 16 20" xml:space="preserve">
<g>
	<path d="M1.644,17.945c-0.406,0-0.813-0.153-1.123-0.466c-0.621-0.621-0.621-1.626,0-2.246L13.232,2.522
		c0.619-0.622,1.625-0.622,2.246,0c0.623,0.62,0.623,1.626,0,2.247L2.768,17.479C2.457,17.792,2.049,17.945,1.644,17.945z"/>
	<path d="M14.355,17.945c-0.406,0-0.814-0.153-1.123-0.466L0.521,4.77c-0.621-0.621-0.621-1.627,0-2.247
		c0.62-0.622,1.626-0.622,2.247,0l12.711,12.71c0.623,0.62,0.623,1.625,0,2.246C15.168,17.792,14.762,17.945,14.355,17.945z"/>
</g>
</svg>
