<!-- Created with Inkscape (http://www.inkscape.org/) -->
<svg id="svg2993" xmlns:rdf="http://www.w3.org/1999/02/22-rdf-syntax-ns#" xmlns="http://www.w3.org/2000/svg" viewBox="0 0 48 48" version="1.1" xmlns:cc="http://creativecommons.org/ns#" xmlns:dc="http://purl.org/dc/elements/1.1/">
	<metadata id="metadata2998">
		<rdf:RDF>
			<cc:Work rdf:about="">
				<dc:format>image/svg+xml</dc:format>
				<dc:type rdf:resource="http://purl.org/dc/dcmitype/StillImage"/>
				<dc:title/>
			</cc:Work>
		</rdf:RDF>
	</metadata>
	<g id="layer1">
		<g id="g3663" transform="translate(-0.1,0.01969385)">
			<g id="g3665">
				<g id="g3667">
					<path id="path3669" fill="#666" d="m14.1,42.2c-0.2,0-0.4-0.1-0.6-0.2l-12.7-8.8c-0.3-0.2-0.4-0.5-0.4-0.8v-28.7c0-0.4,0.2-0.7,0.5-0.9s0.7-0.2,1,0.1l12.2,8.4,11.8-7.7c0.3-0.2,0.8-0.2,1.1,0l12,8.1c0.3,0.2,0.4,0.5,0.4,0.8v8.1c0,0.6-0.5,1-1,1-0.6,0-1-0.5-1-1v-7.6l-11-7.4-11.8,7.7c-0.3,0.2-0.8,0.2-1.1,0l-11.2-7.6v26.2l11.8,8.1,10.6-7c0.5-0.3,1.1-0.2,1.4,0.3s0.2,1.1-0.3,1.4l-11.2,7.3c-0.1,0.1-0.3,0.2-0.5,0.2z"/>
				</g>
				<g id="g3671">
					<path id="path3673" fill="#666" d="m26.5,23.5c-0.6,0-1-0.5-1-1v-18c0-0.6,0.5-1,1-1s1,0.5,1,1v18c0,0.5-0.5,1-1,1z"/>
				</g>
				<g id="g3675">
					<path id="path3677" fill="#666" d="m14.1,42.2c-0.6,0-1-0.5-1-1v-28.6c0-0.6,0.5-1,1-1,0.6,0,1,0.5,1,1v28.6c0,0.5-0.5,1-1,1z"/>
				</g>
			</g>
			<g id="g3679">
				<path id="path3681" fill="#666" d="M38.5,45.3,38,45c-0.4-0.2-8.8-4.9-8.8-12.3,0-5.2,4.2-9.4,9.3-9.4s9.3,4.2,9.3,9.4c0,7.3-8.4,12.1-8.8,12.3l-0.5,0.3zm0-20c-4,0-7.2,3.3-7.2,7.4,0,5.3,5.5,9.2,7.2,10.2,1.7-1.1,7.3-5,7.3-10.2-0.1-4.1-3.3-7.4-7.3-7.4z"/>
			</g>
			<g id="g3683">
				<path id="path3685" fill="#666" d="m38.3,35.9c-1.9,0-3.4-1.5-3.4-3.4s1.5-3.4,3.4-3.4,3.4,1.5,3.4,3.4c-0.1,1.9-1.6,3.4-3.4,3.4zm0-4.7c-0.7,0-1.3,0.6-1.3,1.4,0,0.7,0.6,1.3,1.3,1.3s1.4-0.6,1.4-1.3c-0.1-0.8-0.7-1.4-1.4-1.4z"/>
			</g>
		</g>
	</g>
</svg>
