<!-- Created with Inkscape (http://www.inkscape.org/) -->
<svg id="svg2993" xmlns:rdf="http://www.w3.org/1999/02/22-rdf-syntax-ns#" xmlns="http://www.w3.org/2000/svg" viewBox="0 0 48 48" version="1.1" xmlns:cc="http://creativecommons.org/ns#" xmlns:dc="http://purl.org/dc/elements/1.1/">
	<metadata id="metadata2998">
		<rdf:RDF>
			<cc:Work rdf:about="">
				<dc:format>image/svg+xml</dc:format>
				<dc:type rdf:resource="http://purl.org/dc/dcmitype/StillImage"/>
				<dc:title/>
			</cc:Work>
		</rdf:RDF>
	</metadata>
	<g id="layer1">
		<g id="g3430" transform="translate(-0.4,0.1)">
			<g id="g3414">
				<g id="g3416">
					<path id="path3418" fill="#666" d="M24.4,47.4,23.5,46.9c-0.7-0.4-18.9-10.6-18.9-26.4,0-11.1,8.9-20.1,19.8-20.1s19.8,9,19.8,20.1c0,15.7-18.1,26-18.9,26.4l-0.9,0.5zm0-43.5c-9,0-16.2,7.4-16.2,16.6,0,11.9,12.8,20.7,16.2,22.8,3.5-2.2,16.2-11,16.2-22.8,0-9.1-7.2-16.6-16.2-16.6z"/>
				</g>
			</g>
			<g id="g3420">
				<path id="path3422" fill="#666" d="m24.4,29.2c-4.3,0-7.8-3.5-7.8-7.8s3.5-7.8,7.8-7.8,7.8,3.5,7.8,7.8-3.5,7.8-7.8,7.8zm0-13c-2.8,0-5.2,2.3-5.2,5.2,0,2.8,2.3,5.2,5.2,5.2,2.8,0,5.1-2.3,5.1-5.2,0.1-2.9-2.2-5.2-5.1-5.2z"/>
			</g>
		</g>
	</g>
</svg>
