<svg xmlns="http://www.w3.org/2000/svg" viewBox="0 0 48 48">
  <path d="M 24.34375 3.3125 C 19.443942 3.3125 16.50134 5.8670856 15.1875 8.34375 C 14.581272 9.4865248 14.293376 10.611325 14.125 11.5 L 1.84375 11.5 A 1.750175 1.750175 0 0 0 1.6875 11.5 A 1.750175 1.750175 0 0 0 0.09375 13.25 L 0.09375 42.9375 A 1.750175 1.750175 0 0 0 1.84375 44.6875 L 46.15625 44.6875 A 1.750175 1.750175 0 0 0 47.90625 42.9375 L 47.90625 13.25 A 1.750175 1.750175 0 0 0 46.15625 11.5 L 34.59375 11.5 C 34.418204 10.611325 34.10621 9.4865248 33.5 8.34375 C 32.18616 5.8670856 29.243558 3.3125 24.34375 3.3125 z M 24.34375 6.8125 C 28.143942 6.8125 29.54509 8.3454142 30.40625 9.96875 C 30.691331 10.506144 30.865814 11.016429 31 11.5 L 17.6875 11.5 C 17.817111 11.015857 17.995726 10.506979 18.28125 9.96875 C 19.14241 8.3454142 20.543558 6.8125 24.34375 6.8125 z M 3.59375 15 L 44.40625 15 L 44.40625 22.3125 L 29 22.3125 L 29 21.65625 A 1.750175 1.750175 0 0 0 27.25 19.90625 L 20.5625 19.90625 A 1.750175 1.750175 0 0 0 20.375 19.90625 A 1.750175 1.750175 0 0 0 18.8125 21.65625 L 18.8125 22.3125 L 3.59375 22.3125 L 3.59375 15 z M 22.3125 23.40625 L 25.5 23.40625 L 25.5 28.59375 L 22.3125 28.59375 L 22.3125 23.40625 z M 3.59375 25.8125 L 18.8125 25.8125 L 18.8125 30.34375 A 1.750175 1.750175 0 0 0 20.5625 32.09375 L 27.25 32.09375 A 1.750175 1.750175 0 0 0 29 30.34375 L 29 25.8125 L 44.40625 25.8125 L 44.40625 41.1875 L 3.59375 41.1875 L 3.59375 25.8125 z " />
</svg>
