<!-- Created with Inkscape (http://www.inkscape.org/) -->
<svg id="svg2993" xmlns:rdf="http://www.w3.org/1999/02/22-rdf-syntax-ns#" xmlns="http://www.w3.org/2000/svg" viewBox="0 0 48 48" version="1.1" xmlns:cc="http://creativecommons.org/ns#" xmlns:dc="http://purl.org/dc/elements/1.1/">
	<metadata id="metadata2998">
		<rdf:RDF>
			<cc:Work rdf:about="">
				<dc:format>image/svg+xml</dc:format>
				<dc:type rdf:resource="http://purl.org/dc/dcmitype/StillImage"/>
				<dc:title/>
			</cc:Work>
		</rdf:RDF>
	</metadata>
	<g id="layer1">
		<g id="g3198" transform="translate(-0.05,0.05)">
			<g id="g3200">
				<path id="path3202" fill="#666" d="M45.9,47.5h-43.8c-0.6,0-1.1-0.5-1.1-1.1v-13.7c0-0.2,0.1-0.4,0.2-0.5l6.9-11.3c0.2-0.3,0.5-0.5,0.9-0.5h5.7c0.6,0,1.1,0.5,1.1,1.1s-0.5,1.1-1.1,1.1h-5.1l-6.5,10.4v12.5h41.8v-12.5l-6.4-10.5h-6.1c-0.6,0-1.1-0.5-1.1-1.1s0.5-1.1,1.1-1.1h6.6c0.4,0,0.7,0.2,0.9,0.5l6.9,11.3c0.1,0.2,0.2,0.4,0.2,0.5v13.8c0,0.7-0.5,1.1-1.1,1.1z"/>
			</g>
			<g id="g3204">
				<path id="path3206" fill="#666" d="m27.7,40h-7.5c-3.5,0-4.8-3.5-5.1-6h-13c-0.6,0-1.1-0.5-1.1-1.1s0.5-1.1,1.1-1.1h14c0.6,0,1,0.5,1.1,1,0,0,0.1,5,3.1,5h7.5c3,0,3.1-5,3.1-5,0-0.6,0.5-1,1.1-1h14c0.6,0,1.1,0.5,1.1,1.1s-0.5,1.1-1.1,1.1h-13.1c-0.3,2.5-1.7,6-5.2,6z"/>
			</g>
			<g id="g3208">
				<path id="path3210" fill="#666" d="m24,25.3c-0.3,0-0.5-0.1-0.7-0.3l-7.4-7.4c-0.4-0.4-0.4-1.1,0-1.5s1.1-0.4,1.5,0l6.7,6.7,6.7-6.7c0.4-0.4,1.1-0.4,1.5,0s0.4,1.1,0,1.5l-7.6,7.4c-0.2,0.2-0.4,0.3-0.7,0.3z"/>
			</g>
			<g id="g3212">
				<path id="path3214" fill="#666" d="m24,25.3c-0.6,0-1.1-0.5-1.1-1.1v-22.7c0-0.6,0.5-1.1,1.1-1.1s1.1,0.5,1.1,1.1v22.7c0,0.6-0.5,1.1-1.1,1.1z"/>
			</g>
		</g>
	</g>
</svg>
