<svg xmlns="http://www.w3.org/2000/svg" viewBox="0 0 48 48">
  <path d="M 20.0625 0.3125 C 9.0639841 0.87175781 0.3125 10.021041 0.3125 21.15625 C 0.3125 32.650659 9.6618409 42 21.15625 42 C 26.273039 42 30.962616 40.13237 34.59375 37.0625 L 44.71875 47.1875 L 47.1875 44.71875 L 37.0625 34.59375 C 40.13237 30.962616 42 26.273039 42 21.15625 C 42 9.6618409 32.650659 0.3125 21.15625 0.3125 C 20.79705 0.3125 20.417291 0.29445943 20.0625 0.3125 z M 21.15625 3.8125 C 30.759119 3.8125 38.5 11.553381 38.5 21.15625 C 38.5 30.759119 30.759119 38.5 21.15625 38.5 C 11.553381 38.5 3.8125 30.759119 3.8125 21.15625 C 3.8125 11.553381 11.553381 3.8125 21.15625 3.8125 z " />
</svg>
