<!-- Created with Inkscape (http://www.inkscape.org/) -->
<svg id="svg2985" xmlns:rdf="http://www.w3.org/1999/02/22-rdf-syntax-ns#" xmlns="http://www.w3.org/2000/svg" viewBox="0 0 48 48" version="1.1" xmlns:cc="http://creativecommons.org/ns#" xmlns:dc="http://purl.org/dc/elements/1.1/">
	<metadata id="metadata2990">
		<rdf:RDF>
			<cc:Work rdf:about="">
				<dc:format>image/svg+xml</dc:format>
				<dc:type rdf:resource="http://purl.org/dc/dcmitype/StillImage"/>
				<dc:title/>
			</cc:Work>
		</rdf:RDF>
	</metadata>
	<g id="layer1">
		<g id="XMLID_1_" fill="#808080">
			<circle id="XMLID_1078_" d="M 29.3,5.3000002 C 29.3,8.2271095 26.927109,10.6 24,10.6 21.072891,10.6 18.7,8.2271095 18.7,5.3000002 18.7,2.3728909 21.072891,0 24,0 c 2.927109,0 5.3,2.3728909 5.3,5.3000002 z" cy="5.3" cx="24" r="5.3" class="st0"/>
			<circle id="XMLID_1058_" d="m 29.3,24 c 0,2.927109 -2.372891,5.3 -5.3,5.3 -2.927109,0 -5.3,-2.372891 -5.3,-5.3 0,-2.927109 2.372891,-5.3 5.3,-5.3 2.927109,0 5.3,2.372891 5.3,5.3 z" cy="24" cx="24" r="5.3" class="st0"/>
			<circle id="XMLID_1061_" d="m 29.3,42.700001 c 0,2.927109 -2.372891,5.3 -5.3,5.3 -2.927109,0 -5.3,-2.372891 -5.3,-5.3 0,-2.92711 2.372891,-5.3 5.3,-5.3 2.927109,0 5.3,2.37289 5.3,5.3 z" cy="42.7" cx="24" r="5.3" class="st0"/>
		</g>
	</g>
	<style id="style3045" type="text/css">.st0{fill:#808080;}</style>
</svg>
