<!-- Created with Inkscape (http://www.inkscape.org/) -->
<svg id="svg2985" xmlns:rdf="http://www.w3.org/1999/02/22-rdf-syntax-ns#" xmlns="http://www.w3.org/2000/svg" viewBox="0 0 48 48" version="1.1" xmlns:cc="http://creativecommons.org/ns#" xmlns:dc="http://purl.org/dc/elements/1.1/">
	<metadata id="metadata2990">
		<rdf:RDF>
			<cc:Work rdf:about="">
				<dc:format>image/svg+xml</dc:format>
				<dc:type rdf:resource="http://purl.org/dc/dcmitype/StillImage"/>
				<dc:title/>
			</cc:Work>
		</rdf:RDF>
	</metadata>
	<g id="layer1">
		<g id="XMLID_711_" transform="translate(0,0.00600963)">
			<g id="XMLID_715_">
				<path id="XMLID_2_" fill="#808080" d="M6.7,44.3c-0.5,0-0.9-0.2-1.3-0.5-0.5-0.5-0.7-1.2-0.5-1.9l2.1-7.4c-4.4-3.4-7-8-7-12.7,0-9.8,10.5-17.7,24-18.1,7.7-0.2,14.4,2.1,19,6.6,3.2,3.2,5,7,5,11,0,5.4-2.2,10.1-6.2,13.5-5.4,4.5-13.4,6.2-22,4.8l-12.5,4.6c-0.2,0.1-0.4,0.1-0.6,0.1zm18.1-36.9h-0.8c-11.4,0.3-20.3,6.6-20.3,14.4,0,4,2.3,7.7,6.4,10.5,0.7,0.4,1,1.3,0.8,2l-1.5,5.2,9.5-3.5c0.3-0.1,0.6-0.1,1-0.1,7.6,1.4,14.9-0.1,19.5-3.9,3.2-2.7,4.9-6.4,4.9-10.7,0-2.9-1.4-5.9-3.9-8.3-3.7-3.6-9.2-5.6-15.6-5.6z" class="st0"/>
			</g>
		</g>
	</g>
	<style id="style3044" type="text/css">.st0{fill:#808080;}</style>
</svg>
