<!-- Created with Inkscape (http://www.inkscape.org/) -->
<svg id="svg2985" xmlns:rdf="http://www.w3.org/1999/02/22-rdf-syntax-ns#" xmlns="http://www.w3.org/2000/svg" viewBox="0 0 48 48" version="1.1" xmlns:cc="http://creativecommons.org/ns#" xmlns:dc="http://purl.org/dc/elements/1.1/">
	<metadata id="metadata2990">
		<rdf:RDF>
			<cc:Work rdf:about="">
				<dc:format>image/svg+xml</dc:format>
				<dc:type rdf:resource="http://purl.org/dc/dcmitype/StillImage"/>
				<dc:title/>
			</cc:Work>
		</rdf:RDF>
	</metadata>
	<g id="layer1">
		<g id="XMLID_2_" fill="#808080">
			<path id="XMLID_13_" d="m23.7,9.1c-5.1,0-9.3,4.2-9.3,9.3s4.2,9.3,9.3,9.3c5.2,0,9.3-4.2,9.3-9.3,0.1-5.2-4.1-9.3-9.3-9.3zm0,17.5c-4.5,0-8.2-3.7-8.2-8.2s3.7-8.2,8.2-8.2,8.2,3.7,8.2,8.2-3.7,8.2-8.2,8.2z" class="st0"/>
			<path id="XMLID_16_" d="M24,0c-13.2,0-24,10.8-24,24s10.8,24,24,24,24-10.8,24-24-10.8-24-24-24zm-13.6,42.3c0.1-6.5,6.1-11.7,13.3-11.7,7.4,0,13.3,5.3,13.3,11.9v0.1c-3.7,2.6-8.2,4.2-13.1,4.2-5,0-9.7-1.6-13.5-4.5zm27.8-0.5c-0.4-6.9-6.7-12.4-14.5-12.4-7.6,0-13.8,5.3-14.4,12-5-4.2-8.1-10.4-8.1-17.4,0-12.6,10.2-22.8,22.8-22.8s22.8,10.2,22.8,22.8c0,7.2-3.3,13.7-8.6,17.8z" class="st0"/>
		</g>
	</g>
	<style id="style3044" type="text/css">.st0{fill:#808080;}</style>
	<style id="style3152" type="text/css">.st0{fill:#808080;}</style>
	<style id="style3241" type="text/css">.st0{fill:#808080;}</style>
</svg>
