<!-- Created with Inkscape (http://www.inkscape.org/) -->
<svg id="svg2985" xmlns:rdf="http://www.w3.org/1999/02/22-rdf-syntax-ns#" xmlns="http://www.w3.org/2000/svg" viewBox="0 0 48 48" version="1.1" xmlns:cc="http://creativecommons.org/ns#" xmlns:dc="http://purl.org/dc/elements/1.1/">
	<metadata id="metadata2990">
		<rdf:RDF>
			<cc:Work rdf:about="">
				<dc:format>image/svg+xml</dc:format>
				<dc:type rdf:resource="http://purl.org/dc/dcmitype/StillImage"/>
				<dc:title/>
			</cc:Work>
		</rdf:RDF>
	</metadata>
	<g id="layer1">
		<g id="XMLID_726_">
			<path id="XMLID_729_" fill="#808080" d="m37.7,8c3.5,0,6.3,2.8,6.3,6.3v19.4c0,3.5-2.8,6.3-6.3,6.3h-27.4c-3.4,0-6.3-2.9-6.3-6.3v-19.4c0-3.4,2.9-6.3,6.3-6.3h27.4m0-4h-27.4c-5.6,0-10.3,4.6-10.3,10.3v19.4c0,5.7,4.7,10.3,10.3,10.3h27.3c5.7,0,10.4-4.6,10.4-10.3v-19.4c0-5.7-4.7-10.3-10.3-10.3z" class="st0"/>
			<g id="XMLID_728_">
				<path id="XMLID_4_" fill="#808080" d="m32,30c-0.5,0-1-0.2-1.4-0.6l-6.6-6.6-6.6,6.6c-0.8,0.8-2,0.8-2.8,0s-0.8-2,0-2.8l8-8c0.7-0.7,2.1-0.8,2.8,0l8,8c0.8,0.8,0.8,2,0,2.8-0.4,0.4-0.9,0.6-1.4,0.6z" class="st0"/>
			</g>
		</g>
	</g>
	<style id="style3044" type="text/css">.st0{fill:#808080;}</style>
	<style id="style3152" type="text/css">.st0{fill:#808080;}</style>
	<style id="style3241" type="text/css">.st0{fill:#808080;}</style>
	<style id="style3331" type="text/css">.st0{fill:#808080;}</style>
</svg>
